<?xml version="1.0" standalone="no"?>
<!DOCTYPE svg PUBLIC "-//W3C//DTD SVG 20010904//EN"
 "http://www.w3.org/TR/2001/REC-SVG-20010904/DTD/svg10.dtd">
<svg version="1.0" xmlns="http://www.w3.org/2000/svg"
 width="16.000000pt" height="16.000000pt" viewBox="0 0 16.000000 16.000000"
 preserveAspectRatio="xMidYMid meet">
<metadata>
Created by potrace 1.11, written by Peter Selinger 2001-2013
</metadata>
<g transform="translate(0.000000,16.000000) scale(0.002339,-0.002339)"
fill="#000000" stroke="none">
<path d="M3473 6806 c-50 -23 -93 -55 -182 -135 -95 -86 -129 -111 -191 -135
-44 -18 -154 -24 -210 -12 -41 9 -123 54 -160 88 -19 17 -56 51 -81 74 l-47
43 -53 -16 c-30 -9 -61 -18 -69 -20 -10 -3 -4 -12 20 -31 19 -15 67 -56 106
-93 125 -117 213 -159 350 -164 136 -6 259 39 354 128 178 166 222 190 353
194 129 3 193 -26 320 -148 138 -132 226 -172 382 -173 71 0 115 5 152 17 54
19 151 78 192 117 l23 23 -56 23 -57 23 -53 -34 c-56 -36 -139 -61 -196 -59
-122 3 -194 38 -314 152 -91 87 -142 120 -193 127 -27 3 -61 8 -78 10 -16 2
-86 7 -155 10 -97 4 -132 2 -157 -9z"/>
<path d="M2159 6371 c-79 -20 -154 -64 -234 -138 -163 -150 -209 -173 -337
-174 -70 0 -130 15 -186 48 l-42 25 -44 -33 c-50 -39 -49 -45 21 -86 111 -65
241 -86 362 -58 103 25 167 65 294 185 109 102 190 135 318 128 102 -6 162
-36 274 -139 153 -139 227 -176 366 -183 164 -9 264 35 424 185 121 114 162
133 285 134 52 0 108 -3 123 -7 46 -11 108 -52 177 -117 160 -150 248 -193
400 -194 152 -2 246 38 375 159 76 71 126 109 175 135 39 21 59 24 150 24 96
0 110 -2 162 -29 31 -16 92 -62 135 -103 124 -116 240 -183 316 -183 27 0 26
2 -30 51 -127 112 -409 311 -521 368 -36 18 -53 21 -109 15 -123 -11 -196 -49
-329 -169 -135 -123 -201 -156 -314 -156 -117 -1 -195 36 -313 150 -136 131
-233 175 -382 175 -146 0 -251 -45 -370 -158 -122 -117 -183 -153 -279 -165
-122 -14 -218 20 -321 114 -146 135 -216 180 -306 200 -65 14 -174 13 -240 -4z"/>
<path d="M2150 5911 c-94 -30 -154 -68 -245 -155 -130 -126 -205 -160 -335
-154 -107 5 -171 37 -280 138 -77 72 -183 150 -204 150 -6 0 -30 -19 -54 -41
l-43 -41 63 -32 c35 -17 88 -55 118 -83 111 -103 136 -123 193 -153 103 -56
253 -70 371 -36 66 20 153 76 236 155 125 118 198 153 316 153 117 -1 174 -29
309 -151 153 -140 228 -174 385 -174 153 0 240 40 390 182 46 44 102 85 145
107 63 31 80 35 150 35 130 1 183 -25 339 -169 146 -134 299 -182 466 -147
105 23 167 60 290 175 66 62 142 113 193 129 54 18 168 16 227 -4 55 -18 108
-55 185 -129 68 -64 161 -129 214 -150 134 -52 312 -36 430 39 46 29 46 27 -7
86 l-24 27 -60 -32 c-57 -29 -69 -31 -162 -31 -91 0 -106 3 -158 29 -31 15
-98 67 -150 114 -149 136 -222 171 -364 177 -159 7 -262 -38 -416 -183 -108
-103 -189 -141 -298 -143 -121 -1 -184 31 -338 172 -133 122 -250 168 -399
155 -134 -12 -208 -50 -358 -187 -119 -108 -172 -133 -288 -136 -48 -1 -102 3
-120 9 -51 18 -127 70 -197 136 -138 131 -228 173 -375 177 -63 2 -107 -2
-145 -14z"/>
<path d="M760 5451 c-99 -32 -113 -44 -187 -158 -38 -59 -82 -130 -98 -158
l-28 -49 39 31 c21 17 66 56 99 88 68 64 131 110 171 125 65 25 170 31 230 14
86 -25 116 -46 273 -192 89 -82 229 -132 356 -126 130 5 235 59 370 188 112
106 179 137 301 138 119 1 180 -28 309 -150 33 -31 77 -70 98 -85 123 -93 306
-117 455 -61 74 28 104 48 213 147 139 125 189 149 315 149 70 0 89 -4 146
-31 39 -18 95 -58 137 -97 105 -98 139 -124 206 -155 186 -88 407 -43 566 115
125 122 206 166 317 170 118 4 189 -29 322 -150 149 -135 232 -175 373 -176
165 -2 254 38 410 186 26 25 61 56 78 69 l30 23 -31 42 c-16 23 -35 42 -41 42
-13 0 -47 -28 -148 -122 -41 -37 -100 -81 -130 -95 -49 -24 -69 -27 -151 -28
-134 0 -187 25 -328 160 -127 120 -221 160 -377 159 -158 0 -223 -31 -390
-183 -49 -45 -114 -94 -144 -109 -50 -24 -67 -27 -156 -27 -94 0 -104 2 -160
33 -33 18 -89 60 -125 93 -171 159 -242 193 -405 193 -167 -1 -231 -30 -400
-183 -49 -45 -115 -94 -145 -109 -48 -24 -67 -27 -150 -27 -88 0 -101 3 -160
33 -38 18 -96 62 -140 103 -154 145 -238 184 -400 183 -156 0 -237 -36 -370
-163 -134 -128 -208 -162 -339 -157 -104 3 -178 40 -281 137 -148 139 -231
180 -380 185 -70 2 -109 -2 -150 -15z"/>
<path d="M770 4995 c-101 -29 -143 -55 -263 -164 -91 -83 -142 -117 -210 -140
-45 -15 -51 -20 -68 -66 -11 -27 -19 -51 -19 -53 0 -2 21 -2 47 -1 102 5 206
60 323 169 129 121 215 161 334 154 108 -6 169 -38 292 -153 140 -130 233
-172 384 -173 139 0 248 47 365 160 134 128 207 165 331 166 116 1 176 -28
311 -152 146 -134 235 -175 373 -174 157 2 238 37 377 164 54 49 116 100 138
113 94 57 234 65 333 20 62 -28 78 -40 172 -128 133 -124 230 -168 370 -168
168 -1 234 31 425 206 98 90 186 125 304 119 90 -4 166 -44 274 -143 157 -143
244 -183 394 -182 152 1 236 40 385 176 124 115 204 154 306 150 23 -1 42 -1
42 1 0 2 -12 28 -27 59 -31 63 -39 65 -138 40 -86 -23 -147 -60 -239 -145
-110 -102 -163 -137 -238 -156 -134 -35 -258 4 -378 117 -151 142 -238 188
-376 196 -159 10 -259 -31 -414 -172 -56 -51 -128 -106 -159 -121 -49 -24 -68
-28 -151 -28 -88 -1 -100 1 -160 31 -38 19 -97 63 -140 104 -150 141 -248 187
-401 187 -145 0 -242 -44 -377 -172 -130 -124 -204 -157 -337 -152 -109 4
-151 26 -290 152 -83 75 -178 138 -234 155 -56 17 -210 20 -267 5 -105 -29
-147 -56 -284 -180 -46 -42 -109 -89 -140 -104 -48 -24 -67 -27 -150 -27 -135
1 -168 17 -318 153 -143 130 -216 164 -362 168 -55 1 -114 -3 -140 -11z"/>
<path d="M790 4543 c-88 -18 -181 -74 -278 -167 -128 -122 -220 -163 -346
-152 l-62 5 -11 -52 c-6 -29 -9 -54 -7 -56 13 -14 169 -15 227 -2 91 21 153
60 281 176 43 39 94 80 114 93 71 43 165 58 262 40 81 -15 131 -46 250 -158
76 -71 145 -115 221 -140 54 -19 80 -22 170 -18 97 4 113 8 180 40 69 33 96
54 224 172 77 71 159 108 247 111 129 4 208 -32 338 -155 148 -140 240 -177
417 -168 128 7 202 43 338 168 127 115 193 150 296 154 125 6 201 -27 317
-136 169 -157 252 -194 429 -186 147 6 207 38 398 213 28 25 79 60 114 77 57
29 73 32 150 32 68 -1 97 -6 141 -25 62 -27 65 -29 169 -123 149 -135 240
-177 382 -177 162 0 241 37 410 195 40 37 99 79 135 97 58 29 75 32 152 33 74
0 96 -4 147 -28 33 -15 70 -37 82 -48 13 -12 23 -17 23 -11 0 23 -42 149 -54
161 -43 45 -266 53 -368 13 -64 -25 -142 -80 -238 -171 -36 -33 -94 -75 -130
-93 -59 -29 -73 -32 -155 -32 -128 1 -193 33 -325 164 -110 108 -227 159 -365
159 -153 0 -234 -36 -385 -173 -57 -51 -121 -99 -160 -118 -59 -29 -73 -32
-155 -31 -129 0 -162 16 -307 147 -95 85 -115 100 -165 125 -83 43 -121 51
-232 48 -158 -4 -233 -39 -380 -178 -120 -114 -183 -143 -306 -143 -121 1
-184 32 -315 156 -138 130 -219 164 -385 163 -161 -1 -230 -33 -395 -187 -115
-108 -187 -138 -313 -133 -110 5 -159 31 -288 149 -145 134 -220 169 -369 173
-52 1 -106 0 -120 -3z"/>
<path d="M848 4089 c-132 -14 -202 -50 -338 -175 -120 -110 -192 -146 -294
-149 -46 -1 -93 4 -129 15 -55 17 -56 17 -60 -4 -3 -11 -4 -38 -4 -60 2 -36 5
-40 43 -51 56 -16 190 -19 250 -4 95 23 165 68 299 193 33 31 89 70 123 88 56
28 74 32 150 32 128 1 196 -32 326 -156 64 -63 114 -98 177 -127 72 -33 117
-43 203 -42 151 1 239 45 406 201 36 33 94 75 130 93 59 29 72 32 155 31 131
-1 172 -22 325 -163 139 -129 263 -176 420 -160 128 14 201 54 351 192 97 89
177 129 265 132 130 5 214 -32 334 -146 139 -132 236 -178 375 -179 154 0 248
40 382 163 148 137 217 169 352 162 98 -5 160 -37 277 -144 165 -150 251 -187
419 -179 143 8 221 47 375 191 112 105 189 138 307 132 114 -6 177 -37 292
-148 l54 -52 -7 60 c-12 107 -16 119 -49 148 -43 38 -135 84 -194 98 -49 11
-156 13 -206 4 -98 -19 -186 -71 -298 -177 -54 -52 -105 -90 -148 -110 -59
-29 -75 -32 -156 -32 -81 0 -96 3 -155 33 -38 19 -98 63 -145 107 -143 133
-220 173 -352 181 -179 12 -274 -29 -453 -197 -101 -95 -193 -133 -305 -125
-105 6 -169 38 -273 136 -159 149 -250 191 -407 188 -152 -3 -241 -46 -395
-190 -102 -95 -177 -131 -276 -134 -127 -4 -201 31 -334 156 -71 67 -126 107
-180 133 -52 24 -75 28 -177 33 -157 8 -247 -30 -398 -168 -138 -126 -182
-148 -303 -154 -129 -5 -174 17 -369 188 -128 112 -237 151 -385 136z"/>
<path d="M817 3628 c-95 -12 -189 -64 -302 -168 -133 -121 -199 -154 -304
-153 -90 1 -118 6 -161 28 -17 9 -34 14 -38 11 -10 -11 -1 -111 11 -122 35
-33 222 -43 311 -17 88 26 136 57 273 181 39 35 85 73 102 83 53 32 128 48
206 45 101 -4 174 -41 285 -145 141 -131 220 -171 360 -179 161 -8 254 31 410
173 60 55 119 99 160 118 58 28 75 32 155 32 82 0 96 -3 155 -32 36 -18 93
-59 126 -90 173 -164 251 -201 415 -201 155 0 237 39 396 189 114 107 192 140
316 135 106 -4 187 -47 297 -156 111 -110 205 -157 336 -167 169 -12 268 30
438 185 101 93 165 127 251 137 131 15 223 -23 354 -146 152 -142 227 -174
396 -173 158 1 223 30 369 165 144 133 185 153 316 154 84 0 102 -3 152 -28
31 -15 86 -56 123 -90 105 -96 105 -96 106 -45 3 98 1 107 -36 139 -83 73
-128 100 -207 124 -52 15 -185 21 -241 10 -88 -17 -177 -72 -287 -175 -92 -86
-157 -125 -234 -139 -144 -26 -241 13 -396 159 -148 140 -268 181 -455 156
-53 -7 -159 -52 -203 -86 -15 -12 -47 -40 -72 -64 -143 -135 -214 -171 -340
-169 -120 2 -181 33 -320 163 -126 119 -223 161 -371 161 -147 0 -245 -46
-394 -187 -109 -103 -175 -135 -290 -139 -112 -4 -197 36 -312 146 -146 140
-243 183 -406 181 -146 -3 -227 -44 -402 -207 -84 -77 -163 -115 -251 -119
-128 -6 -206 27 -324 139 -36 34 -83 75 -105 91 -103 78 -231 110 -368 92z"/>
<path d="M810 3168 c-57 -9 -160 -52 -200 -84 -26 -21 -86 -74 -145 -129 -56
-51 -118 -86 -179 -100 -58 -13 -155 -11 -199 5 -17 5 -32 8 -34 6 -8 -8 18
-116 30 -123 7 -4 52 -8 102 -9 159 -4 242 32 391 168 142 131 205 160 337
154 45 -2 98 -11 118 -20 42 -18 115 -72 173 -128 69 -66 153 -125 214 -149
47 -19 76 -23 167 -23 169 0 234 30 404 186 119 110 169 132 291 133 88 0 101
-3 160 -32 36 -18 94 -60 130 -94 149 -140 236 -186 369 -196 162 -11 271 32
411 164 143 134 190 157 320 158 126 0 172 -22 314 -148 160 -143 261 -185
416 -174 137 10 213 48 363 184 48 44 113 93 145 109 51 26 67 29 152 29 87 0
101 -3 160 -32 39 -20 97 -63 145 -108 155 -146 225 -178 390 -179 161 0 237
33 375 164 135 128 224 168 351 157 104 -9 161 -38 261 -133 l46 -44 6 27 c20
101 19 108 -22 145 -131 119 -313 152 -494 92 -50 -16 -152 -87 -206 -142
-112 -114 -199 -156 -324 -155 -120 1 -181 35 -348 192 -44 41 -142 101 -184
112 -72 20 -80 20 -161 20 -146 0 -241 -44 -385 -180 -120 -113 -183 -143
-306 -144 -127 0 -177 27 -363 201 -49 46 -125 89 -191 108 -80 24 -210 21
-288 -5 -83 -28 -124 -55 -224 -147 -93 -85 -142 -119 -201 -140 -84 -30 -206
-21 -287 21 -34 17 -84 58 -185 150 -104 96 -205 137 -335 137 -152 0 -237
-37 -382 -168 -109 -99 -161 -133 -232 -149 -139 -32 -258 8 -386 130 -142
137 -226 179 -370 188 -30 2 -80 -1 -110 -5z"/>
<path d="M794 2705 c-111 -24 -168 -58 -309 -190 -33 -30 -79 -67 -102 -80
-45 -27 -141 -53 -185 -50 -32 2 -34 -5 -12 -68 l16 -47 53 5 c122 12 195 52
340 184 49 45 113 93 144 109 50 24 67 27 156 27 89 -1 106 -4 156 -29 31 -15
103 -71 160 -122 150 -136 241 -176 393 -170 45 2 90 6 101 9 97 27 169 71
266 164 116 111 188 149 294 152 126 4 198 -29 329 -150 150 -140 219 -172
376 -173 162 -1 241 33 384 165 142 133 222 167 359 156 87 -8 158 -45 257
-137 150 -140 233 -180 380 -185 150 -4 253 37 375 150 164 152 212 176 350
172 80 -3 97 -7 150 -35 33 -18 98 -68 145 -112 150 -139 250 -182 409 -176
143 7 224 46 366 180 48 46 106 89 145 108 60 31 71 33 165 33 106 -1 144 -13
222 -71 l32 -24 11 42 c6 24 13 50 16 59 6 21 -20 43 -86 73 -67 31 -146 44
-234 39 -118 -6 -222 -55 -331 -158 -122 -115 -181 -150 -268 -163 -87 -13
-156 -3 -226 33 -47 24 -56 31 -153 120 -145 132 -224 167 -378 168 -149 0
-227 -35 -375 -168 -49 -44 -103 -90 -120 -102 -52 -36 -125 -55 -207 -55 -65
0 -87 5 -143 32 -36 17 -94 57 -128 89 -34 31 -78 72 -97 89 -48 45 -164 101
-225 109 -193 27 -317 -19 -485 -177 -130 -123 -218 -158 -354 -139 -86 11
-151 49 -261 149 -150 136 -254 180 -411 173 -127 -5 -228 -55 -354 -174 -90
-85 -155 -126 -225 -142 -146 -34 -255 5 -394 138 -97 93 -172 141 -256 164
-64 17 -165 19 -231 6z"/>
<path d="M838 2255 c-2 -2 -19 -5 -38 -8 -92 -13 -180 -64 -300 -177 -61 -57
-133 -110 -149 -110 -6 0 -11 -5 -11 -11 0 -19 43 -99 53 -99 18 0 132 83 190
138 119 115 194 152 307 153 117 1 182 -30 315 -151 160 -145 247 -183 410
-175 133 6 218 47 352 170 136 125 199 156 315 156 117 0 181 -31 309 -148
157 -144 228 -176 389 -176 151 0 234 35 360 153 144 135 217 172 329 171 83
-1 134 -16 195 -56 51 -33 73 -51 156 -128 115 -107 199 -141 350 -140 84 0
116 4 162 22 59 23 146 77 182 115 57 58 143 129 180 148 88 47 212 51 311 12
42 -16 105 -63 165 -123 134 -132 253 -183 409 -176 139 6 230 50 371 183 130
123 241 163 374 137 l57 -12 13 32 c29 70 29 72 -6 84 -51 17 -176 20 -244 6
-100 -21 -167 -62 -294 -181 -118 -111 -158 -129 -290 -129 -137 0 -179 19
-315 144 -149 138 -254 183 -411 175 -135 -6 -219 -49 -378 -193 -125 -113
-155 -126 -286 -126 -94 0 -111 3 -160 27 -30 15 -68 40 -85 55 -16 15 -58 53
-92 84 -121 112 -220 154 -363 153 -148 -1 -244 -45 -380 -174 -130 -123 -194
-152 -326 -149 -105 2 -172 33 -269 124 -156 146 -255 196 -395 198 -168 4
-252 -34 -415 -188 -108 -101 -181 -135 -294 -135 -122 0 -188 32 -321 156
-95 88 -145 121 -228 148 -44 15 -194 30 -204 21z"/>
<path d="M790 1789 c-57 -11 -157 -60 -201 -99 -19 -16 -37 -30 -40 -30 -3 0
-11 -11 -18 -24 -11 -21 -10 -28 14 -65 15 -22 30 -41 32 -41 3 0 28 21 56 46
54 48 126 89 173 99 42 8 143 6 186 -4 57 -13 116 -52 209 -137 148 -135 229
-175 369 -178 159 -5 256 36 393 166 99 94 169 138 240 154 46 10 154 4 196
-11 66 -23 102 -48 203 -141 141 -130 254 -177 405 -168 134 7 228 55 363 182
125 118 213 154 343 140 96 -10 155 -42 264 -141 51 -47 114 -99 141 -116 66
-42 179 -70 270 -66 141 7 231 51 372 184 76 71 161 125 215 136 49 9 141 7
187 -5 71 -19 113 -48 249 -174 111 -103 233 -149 377 -141 129 7 213 49 351
174 94 86 132 113 182 131 35 13 77 65 94 119 6 20 4 21 -37 15 -111 -17 -191
-63 -321 -182 -48 -45 -113 -94 -145 -109 -51 -25 -68 -28 -157 -28 -89 0
-106 3 -155 27 -30 15 -95 64 -145 109 -49 45 -108 94 -130 109 -137 93 -341
101 -494 20 -31 -17 -92 -64 -136 -105 -147 -138 -217 -170 -354 -163 -99 4
-162 35 -261 128 -148 139 -243 188 -380 195 -151 8 -262 -38 -403 -167 -153
-140 -178 -152 -317 -153 -96 0 -110 3 -160 28 -30 15 -100 69 -154 118 -55
50 -118 101 -140 114 -134 77 -325 81 -464 11 -26 -13 -93 -64 -149 -114 -56
-49 -114 -99 -130 -109 -46 -32 -122 -53 -194 -53 -112 0 -184 33 -294 135
-118 109 -164 140 -251 170 -56 19 -187 26 -254 14z"/>
<path d="M777 1326 l-49 -11 37 -48 c36 -48 37 -48 88 -44 28 2 76 -1 105 -5
90 -14 136 -43 292 -187 105 -96 232 -142 369 -135 131 8 226 55 351 173 145
138 246 176 390 147 75 -15 130 -50 240 -150 142 -130 245 -175 391 -171 139
4 239 54 379 185 86 81 148 119 222 134 143 30 248 -6 381 -133 169 -161 298
-208 487 -178 95 16 181 65 290 168 115 109 181 144 281 152 106 9 207 -29
294 -108 159 -147 236 -194 345 -213 l54 -10 64 61 63 62 -98 0 c-88 0 -104 3
-155 29 -31 15 -91 61 -135 102 -151 142 -236 184 -378 189 -155 5 -259 -36
-380 -150 -144 -136 -221 -175 -340 -175 -106 0 -185 37 -290 135 -167 156
-267 200 -435 191 -131 -8 -230 -57 -355 -177 -124 -120 -201 -154 -329 -147
-93 4 -177 45 -266 129 -168 158 -241 192 -405 192 -159 0 -239 -34 -376 -163
-137 -130 -203 -161 -336 -157 -77 3 -95 7 -148 35 -33 18 -89 60 -125 93
-160 150 -241 190 -385 194 -49 1 -112 -3 -138 -9z"/>
<path d="M2180 870 c-96 -20 -171 -65 -279 -166 -120 -112 -172 -141 -275
-152 l-61 -7 78 -47 77 -48 51 19 c55 21 125 71 209 151 118 111 208 151 322
143 109 -7 174 -39 282 -140 124 -118 185 -154 292 -176 137 -28 268 -2 372
72 27 20 92 73 143 119 103 91 162 120 257 125 125 8 199 -26 338 -152 54 -50
125 -105 157 -122 91 -48 201 -64 320 -45 92 15 181 67 297 177 89 84 144 118
214 134 132 30 248 -5 363 -108 l38 -35 47 35 47 34 -67 60 c-116 104 -234
146 -377 136 -132 -9 -208 -48 -350 -177 -132 -120 -190 -148 -311 -148 -116
0 -183 33 -304 148 -141 134 -231 175 -385 175 -161 0 -237 -35 -397 -182 -48
-43 -113 -93 -145 -109 -52 -26 -68 -29 -153 -29 -87 0 -101 3 -160 32 -36 18
-92 58 -125 90 -90 87 -177 148 -242 173 -66 25 -201 35 -273 20z"/>
<path d="M2173 410 c-45 -9 -134 -50 -171 -78 l-23 -18 63 -26 c48 -20 67 -23
83 -15 70 37 199 43 284 12 44 -15 123 -69 171 -117 65 -65 104 -91 143 -99
170 -33 349 -57 413 -55 42 1 60 8 115 48 35 26 96 76 134 113 41 38 97 78
135 97 57 28 75 31 151 32 116 0 182 -31 304 -143 50 -46 97 -86 105 -90 8 -5
52 1 97 12 l81 20 -56 28 c-32 16 -86 57 -122 90 -160 151 -240 191 -395 195
-164 5 -239 -29 -407 -183 -114 -104 -176 -134 -282 -139 -126 -5 -198 26
-312 134 -90 85 -139 121 -210 153 -59 27 -83 32 -164 35 -52 2 -114 -1 -137
-6z"/>
<path d="M4918 400 c-29 -9 -67 -24 -85 -33 -38 -20 -156 -117 -150 -123 5 -6
198 80 302 134 l80 42 -47 -2 c-26 -1 -71 -9 -100 -18z"/>
</g>
</svg>
