<?xml version="1.0" encoding="utf-8"?>
<!-- Generator: Adobe Illustrator 21.0.0, SVG Export Plug-In . SVG Version: 6.00 Build 0)  -->
<svg version="1.1" xmlns="http://www.w3.org/2000/svg" xmlns:xlink="http://www.w3.org/1999/xlink" x="0px" y="0px"
	 viewBox="0 0 263.5 357.8" style="enable-background:new 0 0 263.5 357.8;" xml:space="preserve">
<style type="text/css">
	.st0{display:none;}
	.st1{display:inline;}
	.st2{clip-path:url(#SVGID_2_);}
	.st3{opacity:0.4;clip-path:url(#SVGID_4_);}
	.st4{clip-path:url(#SVGID_6_);fill:none;stroke:#E5007E;stroke-width:5.669;}
	.st5{clip-path:url(#SVGID_4_);fill:#4B4F54;}
	.st6{clip-path:url(#SVGID_8_);fill:none;stroke:#000000;stroke-width:0.5;}
	.st7{clip-path:url(#SVGID_8_);fill:#4B4F54;}
	.st8{fill:none;stroke:#000000;stroke-width:0.5;stroke-dasharray:1.999,2;}
	.st9{fill:none;stroke:#000000;stroke-width:0.5;stroke-dasharray:2,2;}
	.st10{fill:none;stroke:#000000;stroke-width:0.5;}
	.st11{clip-path:url(#SVGID_10_);fill:#4B4F54;}
	.st12{clip-path:url(#SVGID_12_);fill:none;stroke:#000000;stroke-width:0.5;stroke-dasharray:1.932,1.932;}
	.st13{clip-path:url(#SVGID_12_);fill:none;stroke:#000000;stroke-width:0.5;stroke-dasharray:1.986,1.986;}
	.st14{clip-path:url(#SVGID_12_);fill:none;stroke:#000000;stroke-width:0.5;}
	.st15{clip-path:url(#SVGID_12_);}
	.st16{opacity:0.4;clip-path:url(#SVGID_14_);}
	.st17{clip-path:url(#SVGID_16_);fill:none;stroke:#E5007E;stroke-width:1.213;}
	.st18{clip-path:url(#SVGID_14_);fill:#4B4F54;}
	.st19{clip-path:url(#SVGID_14_);fill:#46A8C6;}
	.st20{clip-path:url(#SVGID_18_);}
	.st21{fill:none;stroke:#0063A5;stroke-width:0.25;stroke-miterlimit:10;}
	.st22{fill:#85CABB;}
	.st23{fill:#D9BAA3;}
	.st24{fill:#A2CEDD;}
	.st25{fill:#14B8D0;}
	.st26{fill:#0063A5;}
	.st27{fill:#F38B90;}
	.st28{fill:#F69752;}
	.st29{fill:#AA5E61;}
	.st30{fill:#F4E58D;}
	.st31{fill:#CBD4D6;}
	.st32{clip-path:url(#SVGID_20_);fill:url(#);}
	.st33{fill:#FFFFFF;}
	.st34{fill:url(#);}
	.st35{fill:#DFE8AF;}
	.st36{fill:none;}
	.st37{fill:#606060;}
	.st38{fill:#DFE8AF;stroke:#DFE8AF;stroke-width:7;stroke-miterlimit:10;}
	.st39{clip-path:url(#SVGID_22_);}
	.st40{fill:none;stroke:#F38B90;stroke-width:1.65;stroke-miterlimit:10;}
	.st41{clip-path:url(#SVGID_24_);}
	.st42{fill:none;stroke:#0063A5;stroke-width:1.65;stroke-miterlimit:10;}
	.st43{clip-path:url(#SVGID_26_);}
	.st44{fill:none;stroke:#105867;stroke-width:2.4;stroke-miterlimit:10;}
	.st45{clip-path:url(#SVGID_28_);}
	.st46{fill:none;stroke:#F4E58D;stroke-width:2.4;stroke-miterlimit:10;}
	.st47{clip-path:url(#SVGID_30_);fill:url(#);}
	.st48{clip-path:url(#SVGID_32_);fill:url(#);}
	.st49{clip-path:url(#SVGID_34_);fill:url(#);}
	.st50{fill:none;stroke:#E9EAEA;stroke-miterlimit:10;}
	.st51{clip-path:url(#SVGID_36_);}
	.st52{clip-path:url(#SVGID_38_);}
	.st53{fill:#F4E58D;stroke:#F4E58D;stroke-width:2.4;stroke-miterlimit:10;}
	.st54{clip-path:url(#SVGID_40_);fill:url(#);}
	.st55{clip-path:url(#SVGID_42_);}
	.st56{clip-path:url(#SVGID_44_);}
	.st57{clip-path:url(#SVGID_46_);}
	.st58{clip-path:url(#SVGID_48_);}
	.st59{clip-path:url(#SVGID_50_);fill:url(#);}
	.st60{clip-path:url(#SVGID_52_);fill:url(#);}
	.st61{clip-path:url(#SVGID_54_);fill:url(#);}
	.st62{opacity:0.75;clip-path:url(#SVGID_56_);}
	.st63{fill:#D2E3F2;}
	.st64{clip-path:url(#SVGID_58_);}
	.st65{fill:none;stroke:#FFFFFF;stroke-width:0.25;stroke-miterlimit:10;}
	.st66{clip-path:url(#SVGID_60_);}
	.st67{clip-path:url(#SVGID_62_);}
	.st68{clip-path:url(#SVGID_64_);}
	.st69{clip-path:url(#SVGID_66_);}
	.st70{fill:#90C5B3;}
	.st71{fill:#9ABFAC;}
	.st72{fill:#A3BAA4;}
	.st73{fill:#ABB49D;}
	.st74{fill:#B2AD95;}
	.st75{fill:#B9A68E;}
	.st76{fill:#BF9F86;}
	.st77{fill:#C6977E;}
	.st78{fill:#CB8F76;}
	.st79{fill:#D1866E;}
	.st80{fill:#D57C67;}
	.st81{fill:#DA725F;}
	.st82{fill:#DE6657;}
	.st83{fill:#E25950;}
	.st84{fill:#E64B49;}
	.st85{fill:#EA3C42;}
	.st86{clip-path:url(#SVGID_68_);}
</style>
<g id="Artwork_Guidelines" class="st0">
	<g id="Bleed_Area" class="st1">
	</g>
	<g id="Trim_Area" class="st1">
	</g>
	<g id="Safe_Area" class="st1">
	</g>
	<g id="Artwork_Guidelines_1_" class="st1">
	</g>
</g>
<g id="Your_Design">
	<g>
		<defs>
			<rect id="SVGID_63_" width="263.5" height="357.8"/>
		</defs>
		<clipPath id="SVGID_2_">
			<use xlink:href="#SVGID_63_"  style="overflow:visible;"/>
		</clipPath>
		<g class="st2">
			<g>
				<path class="st21" d="M0-2.2c6.6,0,6.6,4.3,13.2,4.3c6.6,0,6.6-4.3,13.2-4.3c6.6,0,6.6,4.3,13.2,4.3c6.6,0,6.6-4.3,13.2-4.3
					c6.6,0,6.6,4.3,13.2,4.3c6.6,0,6.6-4.3,13.2-4.3c6.6,0,6.6,4.3,13.2,4.3c6.6,0,6.6-4.3,13.2-4.3c6.6,0,6.6,4.3,13.2,4.3
					c6.6,0,6.6-4.3,13.2-4.3c6.6,0,6.6,4.3,13.2,4.3c6.6,0,6.6-4.3,13.2-4.3c6.6,0,6.6,4.3,13.2,4.3c6.6,0,6.6-4.3,13.2-4.3
					c6.6,0,6.6,4.3,13.2,4.3c6.6,0,6.6-4.3,13.2-4.3c6.6,0,6.6,4.3,13.2,4.3c6.6,0,6.6-4.3,13.2-4.3c6.6,0,6.6,4.3,13.2,4.3
					c6.6,0,6.6-4.3,13.2-4.3"/>
			</g>
			<g>
				<path class="st21" d="M0,1c6.5,0,6.6,4.3,13.2,4.3c6.5,0,6.6-4.3,13.2-4.3c6.5,0,6.6,4.3,13.2,4.3c6.5,0,6.6-4.3,13.2-4.3
					c6.5,0,6.6,4.3,13.2,4.3C72.4,5.3,72.5,1,79,1c6.5,0,6.6,4.3,13.2,4.3c6.5,0,6.6-4.3,13.2-4.3c6.5,0,6.6,4.3,13.2,4.3
					c6.5,0,6.6-4.3,13.2-4.3c6.5,0,6.6,4.3,13.2,4.3c6.5,0,6.6-4.3,13.2-4.3c6.5,0,6.6,4.3,13.2,4.3c6.5,0,6.6-4.3,13.2-4.3
					c6.5,0,6.6,4.3,13.2,4.3c6.5,0,6.6-4.3,13.2-4.3c6.5,0,6.6,4.3,13.2,4.3c6.5,0,6.6-4.3,13.2-4.3c6.5,0,6.7,4.3,13.2,4.3
					S257,1,263.5,1"/>
			</g>
			<g>
				<path class="st21" d="M0,4.1c6.5,0,6.7,4.3,13.2,4.3c6.5,0,6.7-4.3,13.2-4.3c6.5,0,6.7,4.3,13.2,4.3c6.5,0,6.7-4.3,13.2-4.3
					c6.5,0,6.7,4.3,13.2,4.3c6.5,0,6.7-4.3,13.2-4.3c6.5,0,6.7,4.3,13.2,4.3c6.5,0,6.7-4.3,13.2-4.3c6.5,0,6.7,4.3,13.2,4.3
					c6.5,0,6.7-4.3,13.2-4.3c6.5,0,6.7,4.3,13.2,4.3c6.5,0,6.7-4.3,13.2-4.3c6.5,0,6.7,4.3,13.2,4.3c6.5,0,6.7-4.3,13.2-4.3
					c6.5,0,6.7,4.3,13.2,4.3c6.5,0,6.7-4.3,13.2-4.3c6.5,0,6.7,4.3,13.2,4.3c6.5,0,6.7-4.3,13.2-4.3c6.5,0,6.7,4.3,13.2,4.3
					s6.7-4.3,13.2-4.3"/>
			</g>
			<g>
				<path class="st21" d="M0,7.2c6.4,0,6.8,4.2,13.2,4.2c6.4,0,6.8-4.2,13.2-4.2c6.4,0,6.8,4.2,13.2,4.2c6.4,0,6.8-4.2,13.2-4.2
					c6.4,0,6.8,4.2,13.2,4.2c6.4,0,6.8-4.2,13.2-4.2c6.4,0,6.8,4.2,13.2,4.2c6.4,0,6.8-4.2,13.2-4.2c6.4,0,6.8,4.2,13.2,4.2
					c6.4,0,6.8-4.2,13.2-4.2c6.4,0,6.8,4.2,13.2,4.2c6.4,0,6.8-4.2,13.2-4.2c6.4,0,6.8,4.2,13.2,4.2c6.4,0,6.8-4.2,13.2-4.2
					c6.4,0,6.8,4.2,13.2,4.2c6.4,0,6.8-4.2,13.2-4.2c6.4,0,6.8,4.2,13.2,4.2c6.4,0,6.8-4.2,13.2-4.2c6.4,0,6.8,4.2,13.2,4.2
					c6.4,0,6.8-4.2,13.2-4.2"/>
			</g>
			<g>
				<path class="st21" d="M0,10.3c6.4,0,6.8,4.2,13.2,4.2c6.4,0,6.8-4.2,13.2-4.2c6.4,0,6.8,4.2,13.2,4.2c6.4,0,6.8-4.2,13.2-4.2
					c6.4,0,6.8,4.2,13.2,4.2c6.4,0,6.8-4.2,13.2-4.2c6.4,0,6.8,4.2,13.2,4.2c6.4,0,6.8-4.2,13.2-4.2c6.4,0,6.8,4.2,13.2,4.2
					c6.4,0,6.8-4.2,13.2-4.2c6.4,0,6.8,4.2,13.2,4.2c6.4,0,6.8-4.2,13.2-4.2c6.4,0,6.8,4.2,13.2,4.2c6.4,0,6.8-4.2,13.2-4.2
					c6.4,0,6.8,4.2,13.2,4.2c6.4,0,6.8-4.2,13.2-4.2c6.4,0,6.8,4.2,13.2,4.2c6.4,0,6.8-4.2,13.2-4.2c6.4,0,6.8,4.2,13.2,4.2
					s6.8-4.2,13.2-4.2"/>
			</g>
			<g>
				<path class="st21" d="M0,13.5c6.3,0,6.9,4.2,13.2,4.2c6.3,0,6.9-4.2,13.2-4.2c6.3,0,6.9,4.2,13.2,4.2c6.3,0,6.9-4.2,13.2-4.2
					c6.3,0,6.9,4.2,13.2,4.2c6.3,0,6.9-4.2,13.2-4.2c6.3,0,6.9,4.2,13.2,4.2c6.3,0,6.9-4.2,13.2-4.2c6.3,0,6.9,4.2,13.2,4.2
					c6.3,0,6.9-4.2,13.2-4.2c6.3,0,6.9,4.2,13.2,4.2c6.3,0,6.9-4.2,13.2-4.2c6.3,0,6.9,4.2,13.2,4.2c6.3,0,6.9-4.2,13.2-4.2
					c6.3,0,6.9,4.2,13.2,4.2c6.3,0,6.9-4.2,13.2-4.2c6.3,0,6.9,4.2,13.2,4.2c6.3,0,6.9-4.2,13.2-4.2c6.3,0,6.9,4.2,13.2,4.2
					c6.3,0,6.9-4.2,13.2-4.2"/>
			</g>
			<g>
				<path class="st21" d="M0,16.6c6.2,0,6.9,4.2,13.2,4.2c6.2,0,6.9-4.2,13.2-4.2c6.2,0,6.9,4.2,13.2,4.2c6.2,0,6.9-4.2,13.2-4.2
					c6.2,0,6.9,4.2,13.2,4.2c6.2,0,6.9-4.2,13.2-4.2c6.2,0,6.9,4.2,13.2,4.2c6.2,0,6.9-4.2,13.2-4.2c6.2,0,6.9,4.2,13.2,4.2
					c6.2,0,6.9-4.2,13.2-4.2c6.2,0,6.9,4.2,13.2,4.2c6.2,0,6.9-4.2,13.2-4.2c6.2,0,6.9,4.2,13.2,4.2c6.2,0,6.9-4.2,13.2-4.2
					c6.2,0,6.9,4.2,13.2,4.2c6.2,0,6.9-4.2,13.2-4.2c6.2,0,6.9,4.2,13.2,4.2c6.2,0,6.9-4.2,13.2-4.2c6.2,0,6.9,4.2,13.2,4.2
					s6.9-4.2,13.2-4.2"/>
			</g>
			<g>
				<path class="st21" d="M0,19.7c6.2,0,7,4.1,13.2,4.1c6.2,0,7-4.1,13.2-4.1c6.2,0,7,4.1,13.2,4.1c6.2,0,7-4.1,13.2-4.1
					c6.2,0,7,4.1,13.2,4.1c6.2,0,7-4.1,13.2-4.1c6.2,0,7,4.1,13.2,4.1c6.2,0,7-4.1,13.2-4.1c6.2,0,7,4.1,13.2,4.1
					c6.2,0,7-4.1,13.2-4.1c6.2,0,7,4.1,13.2,4.1c6.2,0,7-4.1,13.2-4.1c6.2,0,7,4.1,13.2,4.1c6.2,0,7-4.1,13.2-4.1
					c6.2,0,7,4.1,13.2,4.1c6.2,0,7-4.1,13.2-4.1c6.2,0,7,4.1,13.2,4.1c6.2,0,7-4.1,13.2-4.1c6.2,0,7,4.1,13.2,4.1
					c6.2,0,7-4.1,13.2-4.1"/>
			</g>
			<g>
				<path class="st21" d="M0,22.8c6.1,0,7,4.1,13.2,4.1c6.1,0,7-4.1,13.2-4.1c6.1,0,7,4.1,13.2,4.1c6.1,0,7-4.1,13.2-4.1
					c6.1,0,7,4.1,13.2,4.1c6.1,0,7-4.1,13.2-4.1c6.1,0,7,4.1,13.2,4.1c6.1,0,7-4.1,13.2-4.1c6.1,0,7,4.1,13.2,4.1
					c6.1,0,7-4.1,13.2-4.1c6.1,0,7,4.1,13.2,4.1c6.1,0,7-4.1,13.2-4.1c6.1,0,7,4.1,13.2,4.1c6.1,0,7-4.1,13.2-4.1
					c6.1,0,7,4.1,13.2,4.1c6.1,0,7-4.1,13.2-4.1c6.1,0,7,4.1,13.2,4.1c6.1,0,7-4.1,13.2-4.1c6.1,0,7.1,4.1,13.2,4.1
					s7.1-4.1,13.2-4.1"/>
			</g>
			<g>
				<path class="st21" d="M0,26C6.1,26,7.1,30,13.2,30c6.1,0,7.1-4.1,13.2-4.1c6.1,0,7.1,4.1,13.2,4.1c6.1,0,7.1-4.1,13.2-4.1
					c6.1,0,7.1,4.1,13.2,4.1C71.9,30,73,26,79,26c6.1,0,7.1,4.1,13.2,4.1c6.1,0,7.1-4.1,13.2-4.1c6.1,0,7.1,4.1,13.2,4.1
					c6.1,0,7.1-4.1,13.2-4.1c6.1,0,7.1,4.1,13.2,4.1c6.1,0,7.1-4.1,13.2-4.1c6.1,0,7.1,4.1,13.2,4.1c6.1,0,7.1-4.1,13.2-4.1
					c6.1,0,7.1,4.1,13.2,4.1c6.1,0,7.1-4.1,13.2-4.1c6.1,0,7.1,4.1,13.2,4.1c6.1,0,7.1-4.1,13.2-4.1c6.1,0,7.1,4.1,13.2,4.1
					c6.1,0,7.1-4.1,13.2-4.1"/>
			</g>
			<g>
				<path class="st21" d="M0,29.1c6,0,7.2,4.1,13.2,4.1c6,0,7.2-4.1,13.2-4.1c6,0,7.2,4.1,13.2,4.1c6,0,7.2-4.1,13.2-4.1
					c6,0,7.2,4.1,13.2,4.1c6,0,7.2-4.1,13.2-4.1c6,0,7.2,4.1,13.2,4.1c6,0,7.2-4.1,13.2-4.1c6,0,7.2,4.1,13.2,4.1
					c6,0,7.2-4.1,13.2-4.1c6,0,7.2,4.1,13.2,4.1c6,0,7.2-4.1,13.2-4.1c6,0,7.2,4.1,13.2,4.1c6,0,7.2-4.1,13.2-4.1
					c6,0,7.2,4.1,13.2,4.1c6,0,7.2-4.1,13.2-4.1c6,0,7.2,4.1,13.2,4.1c6,0,7.2-4.1,13.2-4.1c6,0,7.2,4.1,13.2,4.1s7.2-4.1,13.2-4.1"
					/>
			</g>
			<g>
				<path class="st21" d="M0,32.2c6,0,7.2,4,13.2,4c6,0,7.2-4,13.2-4c6,0,7.2,4,13.2,4c6,0,7.2-4,13.2-4c6,0,7.2,4,13.2,4
					c6,0,7.2-4,13.2-4c6,0,7.2,4,13.2,4c6,0,7.2-4,13.2-4c6,0,7.2,4,13.2,4c6,0,7.2-4,13.2-4c6,0,7.2,4,13.2,4c6,0,7.2-4,13.2-4
					c6,0,7.2,4,13.2,4c6,0,7.2-4,13.2-4c6,0,7.2,4,13.2,4c6,0,7.2-4,13.2-4c6,0,7.2,4,13.2,4c6,0,7.2-4,13.2-4c6,0,7.2,4,13.2,4
					c6,0,7.2-4,13.2-4"/>
			</g>
			<g>
				<path class="st21" d="M0,35.3c5.9,0,7.3,4,13.2,4c5.9,0,7.3-4,13.2-4c5.9,0,7.3,4,13.2,4c5.9,0,7.3-4,13.2-4c5.9,0,7.3,4,13.2,4
					c5.9,0,7.3-4,13.2-4c5.9,0,7.3,4,13.2,4c5.9,0,7.3-4,13.2-4c5.9,0,7.3,4,13.2,4c5.9,0,7.3-4,13.2-4c5.9,0,7.3,4,13.2,4
					c5.9,0,7.3-4,13.2-4c5.9,0,7.3,4,13.2,4c5.9,0,7.3-4,13.2-4c5.9,0,7.3,4,13.2,4c5.9,0,7.3-4,13.2-4c5.9,0,7.3,4,13.2,4
					c5.9,0,7.3-4,13.2-4c5.9,0,7.3,4,13.2,4s7.3-4,13.2-4"/>
			</g>
			<g>
				<path class="st21" d="M0,38.4c5.8,0,7.3,4,13.2,4c5.8,0,7.3-4,13.2-4c5.8,0,7.3,4,13.2,4c5.8,0,7.3-4,13.2-4c5.8,0,7.3,4,13.2,4
					c5.8,0,7.3-4,13.2-4c5.8,0,7.3,4,13.2,4c5.8,0,7.3-4,13.2-4c5.8,0,7.3,4,13.2,4c5.8,0,7.3-4,13.2-4c5.8,0,7.3,4,13.2,4
					c5.8,0,7.3-4,13.2-4c5.8,0,7.3,4,13.2,4c5.8,0,7.3-4,13.2-4c5.8,0,7.3,4,13.2,4c5.8,0,7.3-4,13.2-4c5.8,0,7.3,4,13.2,4
					c5.8,0,7.3-4,13.2-4c5.8,0,7.3,4,13.2,4c5.8,0,7.3-4,13.2-4"/>
			</g>
			<g>
				<path class="st21" d="M0,41.6c5.8,0,7.4,4,13.2,4c5.8,0,7.4-4,13.2-4c5.8,0,7.4,4,13.2,4c5.8,0,7.4-4,13.2-4c5.8,0,7.4,4,13.2,4
					c5.8,0,7.4-4,13.2-4c5.8,0,7.4,4,13.2,4c5.8,0,7.4-4,13.2-4c5.8,0,7.4,4,13.2,4c5.8,0,7.4-4,13.2-4c5.8,0,7.4,4,13.2,4
					c5.8,0,7.4-4,13.2-4c5.8,0,7.4,4,13.2,4c5.8,0,7.4-4,13.2-4c5.8,0,7.4,4,13.2,4c5.8,0,7.4-4,13.2-4c5.8,0,7.4,4,13.2,4
					c5.8,0,7.4-4,13.2-4c5.8,0,7.4,4,13.2,4s7.4-4,13.2-4"/>
			</g>
			<g>
				<path class="st21" d="M0,44.7c5.7,0,7.4,3.9,13.2,3.9c5.7,0,7.4-3.9,13.2-3.9c5.7,0,7.4,3.9,13.2,3.9c5.7,0,7.4-3.9,13.2-3.9
					c5.7,0,7.4,3.9,13.2,3.9c5.7,0,7.4-3.9,13.2-3.9c5.7,0,7.4,3.9,13.2,3.9c5.7,0,7.4-3.9,13.2-3.9c5.7,0,7.4,3.9,13.2,3.9
					c5.7,0,7.4-3.9,13.2-3.9c5.7,0,7.4,3.9,13.2,3.9c5.7,0,7.4-3.9,13.2-3.9c5.7,0,7.4,3.9,13.2,3.9c5.7,0,7.4-3.9,13.2-3.9
					c5.7,0,7.4,3.9,13.2,3.9c5.7,0,7.4-3.9,13.2-3.9c5.7,0,7.4,3.9,13.2,3.9c5.7,0,7.4-3.9,13.2-3.9c5.7,0,7.5,3.9,13.2,3.9
					c5.7,0,7.5-3.9,13.2-3.9"/>
			</g>
			<g>
				<path class="st21" d="M0,47.8c5.7,0,7.5,3.9,13.2,3.9c5.7,0,7.5-3.9,13.2-3.9c5.7,0,7.5,3.9,13.2,3.9c5.7,0,7.5-3.9,13.2-3.9
					c5.7,0,7.5,3.9,13.2,3.9c5.7,0,7.5-3.9,13.2-3.9c5.7,0,7.5,3.9,13.2,3.9c5.7,0,7.5-3.9,13.2-3.9c5.7,0,7.5,3.9,13.2,3.9
					c5.7,0,7.5-3.9,13.2-3.9c5.7,0,7.5,3.9,13.2,3.9c5.7,0,7.5-3.9,13.2-3.9c5.7,0,7.5,3.9,13.2,3.9c5.7,0,7.5-3.9,13.2-3.9
					c5.7,0,7.5,3.9,13.2,3.9c5.7,0,7.5-3.9,13.2-3.9c5.7,0,7.5,3.9,13.2,3.9c5.7,0,7.5-3.9,13.2-3.9c5.7,0,7.5,3.9,13.2,3.9
					s7.5-3.9,13.2-3.9"/>
			</g>
			<g>
				<path class="st21" d="M0,50.9c5.6,0,7.6,3.9,13.2,3.9c5.6,0,7.6-3.9,13.2-3.9c5.6,0,7.6,3.9,13.2,3.9c5.6,0,7.6-3.9,13.2-3.9
					c5.6,0,7.6,3.9,13.2,3.9c5.6,0,7.6-3.9,13.2-3.9c5.6,0,7.6,3.9,13.2,3.9c5.6,0,7.6-3.9,13.2-3.9c5.6,0,7.6,3.9,13.2,3.9
					c5.6,0,7.6-3.9,13.2-3.9c5.6,0,7.6,3.9,13.2,3.9c5.6,0,7.6-3.9,13.2-3.9c5.6,0,7.6,3.9,13.2,3.9c5.6,0,7.6-3.9,13.2-3.9
					c5.6,0,7.6,3.9,13.2,3.9c5.6,0,7.6-3.9,13.2-3.9c5.6,0,7.6,3.9,13.2,3.9c5.6,0,7.6-3.9,13.2-3.9c5.6,0,7.6,3.9,13.2,3.9
					s7.6-3.9,13.2-3.9"/>
			</g>
			<g>
				<path class="st21" d="M0,54.1c5.6,0,7.6,3.9,13.2,3.9c5.6,0,7.6-3.9,13.2-3.9c5.6,0,7.6,3.9,13.2,3.9c5.6,0,7.6-3.9,13.2-3.9
					c5.6,0,7.6,3.9,13.2,3.9c5.6,0,7.6-3.9,13.2-3.9c5.6,0,7.6,3.9,13.2,3.9c5.6,0,7.6-3.9,13.2-3.9c5.6,0,7.6,3.9,13.2,3.9
					c5.6,0,7.6-3.9,13.2-3.9c5.6,0,7.6,3.9,13.2,3.9c5.6,0,7.6-3.9,13.2-3.9c5.6,0,7.6,3.9,13.2,3.9c5.6,0,7.6-3.9,13.2-3.9
					c5.6,0,7.6,3.9,13.2,3.9c5.6,0,7.6-3.9,13.2-3.9c5.6,0,7.6,3.9,13.2,3.9c5.6,0,7.6-3.9,13.2-3.9c5.6,0,7.6,3.9,13.2,3.9
					s7.6-3.9,13.2-3.9"/>
			</g>
			<g>
				<path class="st21" d="M0,57.2c5.5,0,7.7,3.8,13.2,3.8c5.5,0,7.7-3.8,13.2-3.8c5.5,0,7.7,3.8,13.2,3.8c5.5,0,7.7-3.8,13.2-3.8
					c5.5,0,7.7,3.8,13.2,3.8c5.5,0,7.7-3.8,13.2-3.8c5.5,0,7.7,3.8,13.2,3.8c5.5,0,7.7-3.8,13.2-3.8c5.5,0,7.7,3.8,13.2,3.8
					c5.5,0,7.7-3.8,13.2-3.8c5.5,0,7.7,3.8,13.2,3.8c5.5,0,7.7-3.8,13.2-3.8c5.5,0,7.7,3.8,13.2,3.8c5.5,0,7.7-3.8,13.2-3.8
					c5.5,0,7.7,3.8,13.2,3.8c5.5,0,7.7-3.8,13.2-3.8c5.5,0,7.7,3.8,13.2,3.8c5.5,0,7.7-3.8,13.2-3.8c5.5,0,7.7,3.8,13.2,3.8
					c5.5,0,7.7-3.8,13.2-3.8"/>
			</g>
			<g>
				<path class="st21" d="M0,60.3c5.4,0,7.7,3.8,13.2,3.8c5.4,0,7.7-3.8,13.2-3.8c5.4,0,7.7,3.8,13.2,3.8c5.4,0,7.7-3.8,13.2-3.8
					c5.4,0,7.7,3.8,13.2,3.8c5.4,0,7.7-3.8,13.2-3.8c5.4,0,7.7,3.8,13.2,3.8c5.4,0,7.7-3.8,13.2-3.8c5.4,0,7.7,3.8,13.2,3.8
					c5.4,0,7.7-3.8,13.2-3.8c5.4,0,7.7,3.8,13.2,3.8c5.4,0,7.7-3.8,13.2-3.8c5.4,0,7.7,3.8,13.2,3.8c5.4,0,7.7-3.8,13.2-3.8
					c5.4,0,7.7,3.8,13.2,3.8c5.4,0,7.7-3.8,13.2-3.8c5.4,0,7.7,3.8,13.2,3.8c5.4,0,7.7-3.8,13.2-3.8c5.4,0,7.7,3.8,13.2,3.8
					c5.4,0,7.7-3.8,13.2-3.8"/>
			</g>
			<g>
				<path class="st21" d="M0,63.4c5.4,0,7.8,3.8,13.2,3.8c5.4,0,7.8-3.8,13.2-3.8c5.4,0,7.8,3.8,13.2,3.8c5.4,0,7.8-3.8,13.2-3.8
					c5.4,0,7.8,3.8,13.2,3.8c5.4,0,7.8-3.8,13.2-3.8c5.4,0,7.8,3.8,13.2,3.8c5.4,0,7.8-3.8,13.2-3.8c5.4,0,7.8,3.8,13.2,3.8
					c5.4,0,7.8-3.8,13.2-3.8c5.4,0,7.8,3.8,13.2,3.8c5.4,0,7.8-3.8,13.2-3.8c5.4,0,7.8,3.8,13.2,3.8c5.4,0,7.8-3.8,13.2-3.8
					c5.4,0,7.8,3.8,13.2,3.8c5.4,0,7.8-3.8,13.2-3.8c5.4,0,7.8,3.8,13.2,3.8c5.4,0,7.8-3.8,13.2-3.8c5.4,0,7.8,3.8,13.2,3.8
					c5.4,0,7.8-3.8,13.2-3.8"/>
			</g>
			<g>
				<path class="st21" d="M0,66.6c5.3,0,7.8,3.8,13.2,3.8c5.3,0,7.8-3.8,13.2-3.8c5.3,0,7.8,3.8,13.2,3.8c5.3,0,7.8-3.8,13.2-3.8
					c5.3,0,7.8,3.8,13.2,3.8c5.3,0,7.8-3.8,13.2-3.8c5.3,0,7.8,3.8,13.2,3.8c5.3,0,7.8-3.8,13.2-3.8c5.3,0,7.8,3.8,13.2,3.8
					c5.3,0,7.8-3.8,13.2-3.8c5.3,0,7.8,3.8,13.2,3.8c5.3,0,7.8-3.8,13.2-3.8c5.3,0,7.8,3.8,13.2,3.8c5.3,0,7.8-3.8,13.2-3.8
					c5.3,0,7.8,3.8,13.2,3.8c5.3,0,7.8-3.8,13.2-3.8c5.3,0,7.9,3.8,13.2,3.8c5.3,0,7.8-3.8,13.2-3.8c5.3,0,7.9,3.8,13.2,3.8
					c5.3,0,7.9-3.8,13.2-3.8"/>
			</g>
			<g>
				<path class="st21" d="M0,69.7c5.3,0,7.9,3.7,13.2,3.7c5.3,0,7.9-3.7,13.2-3.7c5.3,0,7.9,3.7,13.2,3.7c5.3,0,7.9-3.7,13.2-3.7
					c5.3,0,7.9,3.7,13.2,3.7c5.3,0,7.9-3.7,13.2-3.7c5.3,0,7.9,3.7,13.2,3.7c5.3,0,7.9-3.7,13.2-3.7c5.3,0,7.9,3.7,13.2,3.7
					c5.3,0,7.9-3.7,13.2-3.7c5.3,0,7.9,3.7,13.2,3.7c5.3,0,7.9-3.7,13.2-3.7c5.3,0,7.9,3.7,13.2,3.7c5.3,0,7.9-3.7,13.2-3.7
					c5.3,0,7.9,3.7,13.2,3.7c5.3,0,7.9-3.7,13.2-3.7c5.3,0,7.9,3.7,13.2,3.7c5.3,0,7.9-3.7,13.2-3.7c5.3,0,7.9,3.7,13.2,3.7
					c5.3,0,7.9-3.7,13.2-3.7"/>
			</g>
			<g>
				<path class="st21" d="M0,72.8c5.2,0,8,3.7,13.2,3.7c5.2,0,8-3.7,13.2-3.7c5.2,0,8,3.7,13.2,3.7c5.2,0,8-3.7,13.2-3.7
					c5.2,0,8,3.7,13.2,3.7c5.2,0,8-3.7,13.2-3.7c5.2,0,8,3.7,13.2,3.7c5.2,0,8-3.7,13.2-3.7c5.2,0,8,3.7,13.2,3.7
					c5.2,0,8-3.7,13.2-3.7c5.2,0,8,3.7,13.2,3.7c5.2,0,8-3.7,13.2-3.7c5.2,0,8,3.7,13.2,3.7c5.2,0,8-3.7,13.2-3.7
					c5.2,0,8,3.7,13.2,3.7c5.2,0,8-3.7,13.2-3.7c5.2,0,8,3.7,13.2,3.7c5.2,0,8-3.7,13.2-3.7c5.2,0,8,3.7,13.2,3.7
					c5.2,0,8-3.7,13.2-3.7"/>
			</g>
			<g>
				<path class="st21" d="M0,75.9c5.2,0,8,3.7,13.2,3.7c5.2,0,8-3.7,13.2-3.7c5.2,0,8,3.7,13.2,3.7c5.2,0,8-3.7,13.2-3.7
					c5.2,0,8,3.7,13.2,3.7c5.2,0,8-3.7,13.2-3.7c5.2,0,8,3.7,13.2,3.7c5.2,0,8-3.7,13.2-3.7c5.2,0,8,3.7,13.2,3.7
					c5.2,0,8-3.7,13.2-3.7c5.2,0,8,3.7,13.2,3.7c5.2,0,8-3.7,13.2-3.7c5.2,0,8,3.7,13.2,3.7c5.2,0,8-3.7,13.2-3.7
					c5.2,0,8,3.7,13.2,3.7c5.2,0,8-3.7,13.2-3.7c5.2,0,8,3.7,13.2,3.7c5.2,0,8-3.7,13.2-3.7c5.2,0,8,3.7,13.2,3.7s8-3.7,13.2-3.7"/>
			</g>
			<g>
				<path class="st21" d="M0,79.1c5.1,0,8.1,3.7,13.2,3.7c5.1,0,8.1-3.7,13.2-3.7c5.1,0,8.1,3.7,13.2,3.7c5.1,0,8.1-3.7,13.2-3.7
					c5.1,0,8.1,3.7,13.2,3.7c5.1,0,8.1-3.7,13.2-3.7c5.1,0,8.1,3.7,13.2,3.7c5.1,0,8.1-3.7,13.2-3.7c5.1,0,8.1,3.7,13.2,3.7
					c5.1,0,8.1-3.7,13.2-3.7c5.1,0,8.1,3.7,13.2,3.7c5.1,0,8.1-3.7,13.2-3.7c5.1,0,8.1,3.7,13.2,3.7c5.1,0,8.1-3.7,13.2-3.7
					c5.1,0,8.1,3.7,13.2,3.7c5.1,0,8.1-3.7,13.2-3.7c5.1,0,8.1,3.7,13.2,3.7c5.1,0,8.1-3.7,13.2-3.7c5.1,0,8.1,3.7,13.2,3.7
					s8.1-3.7,13.2-3.7"/>
			</g>
			<g>
				<path class="st21" d="M0,82.2c5,0,8.1,3.6,13.2,3.6c5,0,8.1-3.6,13.2-3.6c5,0,8.1,3.6,13.2,3.6c5,0,8.1-3.6,13.2-3.6
					c5,0,8.1,3.6,13.2,3.6c5,0,8.1-3.6,13.2-3.6c5,0,8.1,3.6,13.2,3.6c5,0,8.1-3.6,13.2-3.6c5,0,8.1,3.6,13.2,3.6
					c5,0,8.1-3.6,13.2-3.6c5,0,8.1,3.6,13.2,3.6c5,0,8.1-3.6,13.2-3.6c5,0,8.1,3.6,13.2,3.6c5,0,8.1-3.6,13.2-3.6
					c5,0,8.1,3.6,13.2,3.6c5,0,8.1-3.6,13.2-3.6c5,0,8.1,3.6,13.2,3.6c5,0,8.1-3.6,13.2-3.6c5,0,8.1,3.6,13.2,3.6s8.1-3.6,13.2-3.6"
					/>
			</g>
			<g>
				<path class="st21" d="M0,85.3c5,0,8.2,3.6,13.2,3.6c5,0,8.2-3.6,13.2-3.6c5,0,8.2,3.6,13.2,3.6c5,0,8.2-3.6,13.2-3.6
					c5,0,8.2,3.6,13.2,3.6c5,0,8.2-3.6,13.2-3.6c5,0,8.2,3.6,13.2,3.6c5,0,8.2-3.6,13.2-3.6c5,0,8.2,3.6,13.2,3.6
					c5,0,8.2-3.6,13.2-3.6c5,0,8.2,3.6,13.2,3.6c5,0,8.2-3.6,13.2-3.6c5,0,8.2,3.6,13.2,3.6c5,0,8.2-3.6,13.2-3.6
					c5,0,8.2,3.6,13.2,3.6c5,0,8.2-3.6,13.2-3.6c5,0,8.2,3.6,13.2,3.6c5,0,8.2-3.6,13.2-3.6c5,0,8.2,3.6,13.2,3.6s8.2-3.6,13.2-3.6"
					/>
			</g>
			<g>
				<path class="st21" d="M0,88.4c4.9,0,8.2,3.6,13.2,3.6c4.9,0,8.2-3.6,13.2-3.6c4.9,0,8.2,3.6,13.2,3.6c4.9,0,8.2-3.6,13.2-3.6
					c4.9,0,8.2,3.6,13.2,3.6c4.9,0,8.2-3.6,13.2-3.6c4.9,0,8.2,3.6,13.2,3.6c4.9,0,8.2-3.6,13.2-3.6c4.9,0,8.2,3.6,13.2,3.6
					c4.9,0,8.2-3.6,13.2-3.6c4.9,0,8.3,3.6,13.2,3.6c4.9,0,8.2-3.6,13.2-3.6c4.9,0,8.2,3.6,13.2,3.6c4.9,0,8.2-3.6,13.2-3.6
					c4.9,0,8.2,3.6,13.2,3.6c4.9,0,8.2-3.6,13.2-3.6c4.9,0,8.3,3.6,13.2,3.6c4.9,0,8.2-3.6,13.2-3.6c4.9,0,8.3,3.6,13.2,3.6
					s8.3-3.6,13.2-3.6"/>
			</g>
			<g>
				<path class="st21" d="M0,91.5c4.9,0,8.3,3.6,13.2,3.6c4.9,0,8.3-3.6,13.2-3.6c4.9,0,8.3,3.6,13.2,3.6c4.9,0,8.3-3.6,13.2-3.6
					c4.9,0,8.3,3.6,13.2,3.6c4.9,0,8.3-3.6,13.2-3.6c4.9,0,8.3,3.6,13.2,3.6c4.9,0,8.3-3.6,13.2-3.6c4.9,0,8.3,3.6,13.2,3.6
					c4.9,0,8.3-3.6,13.2-3.6c4.9,0,8.3,3.6,13.2,3.6c4.9,0,8.3-3.6,13.2-3.6c4.9,0,8.3,3.6,13.2,3.6c4.9,0,8.3-3.6,13.2-3.6
					c4.9,0,8.3,3.6,13.2,3.6c4.9,0,8.3-3.6,13.2-3.6c4.9,0,8.3,3.6,13.2,3.6c4.9,0,8.3-3.6,13.2-3.6c4.9,0,8.3,3.6,13.2,3.6
					s8.3-3.6,13.2-3.6"/>
			</g>
			<g>
				<path class="st21" d="M0,94.7c4.8,0,8.4,3.5,13.2,3.5c4.8,0,8.4-3.5,13.2-3.5c4.8,0,8.4,3.5,13.2,3.5c4.8,0,8.4-3.5,13.2-3.5
					c4.8,0,8.4,3.5,13.2,3.5c4.8,0,8.4-3.5,13.2-3.5c4.8,0,8.4,3.5,13.2,3.5c4.8,0,8.4-3.5,13.2-3.5c4.8,0,8.4,3.5,13.2,3.5
					c4.8,0,8.4-3.5,13.2-3.5c4.8,0,8.4,3.5,13.2,3.5c4.8,0,8.4-3.5,13.2-3.5c4.8,0,8.4,3.5,13.2,3.5c4.8,0,8.4-3.5,13.2-3.5
					c4.8,0,8.4,3.5,13.2,3.5c4.8,0,8.4-3.5,13.2-3.5c4.8,0,8.4,3.5,13.2,3.5c4.8,0,8.4-3.5,13.2-3.5c4.8,0,8.4,3.5,13.2,3.5
					s8.4-3.5,13.2-3.5"/>
			</g>
			<g>
				<path class="st21" d="M0,97.8c4.8,0,8.4,3.5,13.2,3.5c4.8,0,8.4-3.5,13.2-3.5c4.8,0,8.4,3.5,13.2,3.5c4.8,0,8.4-3.5,13.2-3.5
					c4.8,0,8.4,3.5,13.2,3.5c4.8,0,8.4-3.5,13.2-3.5c4.8,0,8.4,3.5,13.2,3.5c4.8,0,8.4-3.5,13.2-3.5c4.8,0,8.4,3.5,13.2,3.5
					c4.8,0,8.4-3.5,13.2-3.5c4.8,0,8.4,3.5,13.2,3.5c4.8,0,8.4-3.5,13.2-3.5c4.8,0,8.4,3.5,13.2,3.5c4.8,0,8.4-3.5,13.2-3.5
					c4.8,0,8.4,3.5,13.2,3.5c4.8,0,8.4-3.5,13.2-3.5c4.8,0,8.4,3.5,13.2,3.5c4.8,0,8.4-3.5,13.2-3.5c4.8,0,8.4,3.5,13.2,3.5
					s8.4-3.5,13.2-3.5"/>
			</g>
			<g>
				<path class="st21" d="M0,100.9c4.7,0,8.5,3.5,13.2,3.5c4.7,0,8.5-3.5,13.2-3.5c4.7,0,8.5,3.5,13.2,3.5c4.7,0,8.5-3.5,13.2-3.5
					c4.7,0,8.5,3.5,13.2,3.5c4.7,0,8.5-3.5,13.2-3.5c4.7,0,8.5,3.5,13.2,3.5c4.7,0,8.5-3.5,13.2-3.5c4.7,0,8.5,3.5,13.2,3.5
					c4.7,0,8.5-3.5,13.2-3.5c4.7,0,8.5,3.5,13.2,3.5c4.7,0,8.5-3.5,13.2-3.5c4.7,0,8.5,3.5,13.2,3.5c4.7,0,8.5-3.5,13.2-3.5
					c4.7,0,8.5,3.5,13.2,3.5c4.7,0,8.5-3.5,13.2-3.5c4.7,0,8.5,3.5,13.2,3.5c4.7,0,8.5-3.5,13.2-3.5c4.7,0,8.5,3.5,13.2,3.5
					s8.5-3.5,13.2-3.5"/>
			</g>
			<g>
				<path class="st21" d="M0,104c4.6,0,8.5,3.5,13.2,3.5c4.6,0,8.5-3.5,13.2-3.5c4.6,0,8.5,3.5,13.2,3.5c4.6,0,8.5-3.5,13.2-3.5
					c4.6,0,8.5,3.5,13.2,3.5c4.6,0,8.5-3.5,13.2-3.5c4.6,0,8.5,3.5,13.2,3.5c4.6,0,8.5-3.5,13.2-3.5c4.6,0,8.5,3.5,13.2,3.5
					c4.6,0,8.5-3.5,13.2-3.5c4.6,0,8.5,3.5,13.2,3.5c4.6,0,8.5-3.5,13.2-3.5c4.6,0,8.5,3.5,13.2,3.5c4.6,0,8.5-3.5,13.2-3.5
					c4.6,0,8.5,3.5,13.2,3.5c4.6,0,8.5-3.5,13.2-3.5c4.6,0,8.5,3.5,13.2,3.5c4.6,0,8.5-3.5,13.2-3.5c4.6,0,8.5,3.5,13.2,3.5
					s8.5-3.5,13.2-3.5"/>
			</g>
			<g>
				<path class="st21" d="M0,107.2c4.6,0,8.6,3.4,13.2,3.4c4.6,0,8.6-3.4,13.2-3.4c4.6,0,8.6,3.4,13.2,3.4c4.6,0,8.6-3.4,13.2-3.4
					c4.6,0,8.6,3.4,13.2,3.4c4.6,0,8.6-3.4,13.2-3.4c4.6,0,8.6,3.4,13.2,3.4c4.6,0,8.6-3.4,13.2-3.4c4.6,0,8.6,3.4,13.2,3.4
					c4.6,0,8.6-3.4,13.2-3.4c4.6,0,8.6,3.4,13.2,3.4c4.6,0,8.6-3.4,13.2-3.4c4.6,0,8.6,3.4,13.2,3.4c4.6,0,8.6-3.4,13.2-3.4
					c4.6,0,8.6,3.4,13.2,3.4c4.6,0,8.6-3.4,13.2-3.4c4.6,0,8.6,3.4,13.2,3.4c4.6,0,8.6-3.4,13.2-3.4c4.6,0,8.6,3.4,13.2,3.4
					s8.6-3.4,13.2-3.4"/>
			</g>
			<g>
				<path class="st21" d="M0,110.3c4.5,0,8.6,3.4,13.2,3.4c4.5,0,8.6-3.4,13.2-3.4c4.5,0,8.6,3.4,13.2,3.4c4.5,0,8.6-3.4,13.2-3.4
					c4.5,0,8.6,3.4,13.2,3.4c4.5,0,8.6-3.4,13.2-3.4c4.5,0,8.7,3.4,13.2,3.4c4.5,0,8.6-3.4,13.2-3.4c4.5,0,8.6,3.4,13.2,3.4
					c4.5,0,8.6-3.4,13.2-3.4c4.5,0,8.7,3.4,13.2,3.4c4.5,0,8.6-3.4,13.2-3.4c4.5,0,8.7,3.4,13.2,3.4c4.5,0,8.7-3.4,13.2-3.4
					c4.5,0,8.6,3.4,13.2,3.4c4.5,0,8.7-3.4,13.2-3.4c4.5,0,8.7,3.4,13.2,3.4c4.5,0,8.7-3.4,13.2-3.4c4.5,0,8.7,3.4,13.2,3.4
					c4.5,0,8.7-3.4,13.2-3.4"/>
			</g>
			<g>
				<path class="st21" d="M0,113.4c4.5,0,8.7,3.4,13.2,3.4c4.5,0,8.7-3.4,13.2-3.4c4.5,0,8.7,3.4,13.2,3.4c4.5,0,8.7-3.4,13.2-3.4
					c4.5,0,8.7,3.4,13.2,3.4c4.5,0,8.7-3.4,13.2-3.4c4.5,0,8.7,3.4,13.2,3.4c4.5,0,8.7-3.4,13.2-3.4c4.5,0,8.7,3.4,13.2,3.4
					c4.5,0,8.7-3.4,13.2-3.4c4.5,0,8.7,3.4,13.2,3.4c4.5,0,8.7-3.4,13.2-3.4c4.5,0,8.7,3.4,13.2,3.4c4.5,0,8.7-3.4,13.2-3.4
					c4.5,0,8.7,3.4,13.2,3.4c4.5,0,8.7-3.4,13.2-3.4c4.5,0,8.7,3.4,13.2,3.4c4.5,0,8.7-3.4,13.2-3.4c4.5,0,8.7,3.4,13.2,3.4
					c4.5,0,8.7-3.4,13.2-3.4"/>
			</g>
			<g>
				<path class="st21" d="M0,116.5c4.4,0,8.8,3.4,13.2,3.4c4.4,0,8.8-3.4,13.2-3.4c4.4,0,8.8,3.4,13.2,3.4c4.4,0,8.8-3.4,13.2-3.4
					c4.4,0,8.8,3.4,13.2,3.4c4.4,0,8.8-3.4,13.2-3.4c4.4,0,8.8,3.4,13.2,3.4c4.4,0,8.8-3.4,13.2-3.4c4.4,0,8.8,3.4,13.2,3.4
					c4.4,0,8.8-3.4,13.2-3.4c4.4,0,8.8,3.4,13.2,3.4c4.4,0,8.8-3.4,13.2-3.4c4.4,0,8.8,3.4,13.2,3.4c4.4,0,8.8-3.4,13.2-3.4
					c4.4,0,8.8,3.4,13.2,3.4c4.4,0,8.8-3.4,13.2-3.4c4.4,0,8.8,3.4,13.2,3.4c4.4,0,8.8-3.4,13.2-3.4c4.4,0,8.8,3.4,13.2,3.4
					c4.4,0,8.8-3.4,13.2-3.4"/>
			</g>
			<g>
				<path class="st21" d="M0,119.7c4.4,0,8.8,3.3,13.2,3.3c4.4,0,8.8-3.3,13.2-3.3c4.4,0,8.8,3.3,13.2,3.3c4.4,0,8.8-3.3,13.2-3.3
					c4.4,0,8.8,3.3,13.2,3.3c4.4,0,8.8-3.3,13.2-3.3c4.4,0,8.8,3.3,13.2,3.3c4.4,0,8.8-3.3,13.2-3.3c4.4,0,8.8,3.3,13.2,3.3
					c4.4,0,8.8-3.3,13.2-3.3c4.4,0,8.8,3.3,13.2,3.3c4.4,0,8.8-3.3,13.2-3.3c4.4,0,8.8,3.3,13.2,3.3c4.4,0,8.8-3.3,13.2-3.3
					c4.4,0,8.8,3.3,13.2,3.3c4.4,0,8.8-3.3,13.2-3.3c4.4,0,8.8,3.3,13.2,3.3c4.4,0,8.8-3.3,13.2-3.3c4.4,0,8.8,3.3,13.2,3.3
					c4.4,0,8.8-3.3,13.2-3.3"/>
			</g>
			<g>
				<path class="st21" d="M0,122.8c4.3,0,8.9,3.3,13.2,3.3c4.3,0,8.9-3.3,13.2-3.3c4.3,0,8.9,3.3,13.2,3.3c4.3,0,8.9-3.3,13.2-3.3
					c4.3,0,8.9,3.3,13.2,3.3c4.3,0,8.9-3.3,13.2-3.3c4.3,0,8.9,3.3,13.2,3.3c4.3,0,8.9-3.3,13.2-3.3c4.3,0,8.9,3.3,13.2,3.3
					c4.3,0,8.9-3.3,13.2-3.3c4.3,0,8.9,3.3,13.2,3.3c4.3,0,8.9-3.3,13.2-3.3c4.3,0,8.9,3.3,13.2,3.3c4.3,0,8.9-3.3,13.2-3.3
					c4.3,0,8.9,3.3,13.2,3.3c4.3,0,8.9-3.3,13.2-3.3c4.3,0,8.9,3.3,13.2,3.3c4.3,0,8.9-3.3,13.2-3.3c4.3,0,8.9,3.3,13.2,3.3
					c4.3,0,8.9-3.3,13.2-3.3"/>
			</g>
			<g>
				<path class="st21" d="M0,125.9c4.2,0,8.9,3.3,13.2,3.3c4.2,0,8.9-3.3,13.2-3.3c4.2,0,8.9,3.3,13.2,3.3c4.2,0,8.9-3.3,13.2-3.3
					c4.2,0,8.9,3.3,13.2,3.3c4.2,0,8.9-3.3,13.2-3.3c4.2,0,8.9,3.3,13.2,3.3c4.2,0,8.9-3.3,13.2-3.3c4.2,0,8.9,3.3,13.2,3.3
					c4.2,0,8.9-3.3,13.2-3.3c4.2,0,8.9,3.3,13.2,3.3c4.2,0,8.9-3.3,13.2-3.3c4.2,0,8.9,3.3,13.2,3.3c4.2,0,8.9-3.3,13.2-3.3
					c4.2,0,8.9,3.3,13.2,3.3c4.2,0,8.9-3.3,13.2-3.3c4.2,0,8.9,3.3,13.2,3.3c4.2,0,8.9-3.3,13.2-3.3c4.2,0,8.9,3.3,13.2,3.3
					c4.2,0,8.9-3.3,13.2-3.3"/>
			</g>
			<g>
				<path class="st21" d="M0,129c4.2,0,9,3.3,13.2,3.3c4.2,0,9-3.3,13.2-3.3c4.2,0,9,3.3,13.2,3.3c4.2,0,9-3.3,13.2-3.3
					c4.2,0,9,3.3,13.2,3.3c4.2,0,9-3.3,13.2-3.3c4.2,0,9,3.3,13.2,3.3c4.2,0,9-3.3,13.2-3.3c4.2,0,9,3.3,13.2,3.3
					c4.2,0,9-3.3,13.2-3.3c4.2,0,9,3.3,13.2,3.3c4.2,0,9-3.3,13.2-3.3c4.2,0,9,3.3,13.2,3.3c4.2,0,9-3.3,13.2-3.3
					c4.2,0,9,3.3,13.2,3.3c4.2,0,9-3.3,13.2-3.3c4.2,0,9,3.3,13.2,3.3c4.2,0,9-3.3,13.2-3.3c4.2,0,9,3.3,13.2,3.3s9-3.3,13.2-3.3"/>
			</g>
			<g>
				<path class="st21" d="M0,132.1c4.1,0,9,3.2,13.2,3.2c4.1,0,9.1-3.2,13.2-3.2c4.1,0,9.1,3.2,13.2,3.2c4.1,0,9-3.2,13.2-3.2
					c4.1,0,9,3.2,13.2,3.2c4.1,0,9-3.2,13.2-3.2c4.1,0,9.1,3.2,13.2,3.2c4.1,0,9-3.2,13.2-3.2c4.1,0,9,3.2,13.2,3.2
					c4.1,0,9.1-3.2,13.2-3.2c4.1,0,9.1,3.2,13.2,3.2c4.1,0,9.1-3.2,13.2-3.2c4.1,0,9.1,3.2,13.2,3.2c4.1,0,9.1-3.2,13.2-3.2
					c4.1,0,9,3.2,13.2,3.2c4.1,0,9.1-3.2,13.2-3.2c4.1,0,9.1,3.2,13.2,3.2c4.1,0,9.1-3.2,13.2-3.2c4.1,0,9.1,3.2,13.2,3.2
					s9.1-3.2,13.2-3.2"/>
			</g>
			<g>
				<path class="st21" d="M0,135.3c4.1,0,9.1,3.2,13.2,3.2c4.1,0,9.1-3.2,13.2-3.2c4.1,0,9.1,3.2,13.2,3.2c4.1,0,9.1-3.2,13.2-3.2
					c4.1,0,9.1,3.2,13.2,3.2c4.1,0,9.1-3.2,13.2-3.2c4.1,0,9.1,3.2,13.2,3.2c4.1,0,9.1-3.2,13.2-3.2c4.1,0,9.1,3.2,13.2,3.2
					c4.1,0,9.1-3.2,13.2-3.2c4.1,0,9.1,3.2,13.2,3.2c4.1,0,9.1-3.2,13.2-3.2c4.1,0,9.1,3.2,13.2,3.2c4.1,0,9.1-3.2,13.2-3.2
					c4.1,0,9.1,3.2,13.2,3.2c4.1,0,9.1-3.2,13.2-3.2c4.1,0,9.1,3.2,13.2,3.2c4.1,0,9.1-3.2,13.2-3.2c4.1,0,9.1,3.2,13.2,3.2
					s9.1-3.2,13.2-3.2"/>
			</g>
			<g>
				<path class="st21" d="M0,138.4c4,0,9.2,3.2,13.2,3.2c4,0,9.2-3.2,13.2-3.2c4,0,9.2,3.2,13.2,3.2c4,0,9.2-3.2,13.2-3.2
					c4,0,9.2,3.2,13.2,3.2c4,0,9.2-3.2,13.2-3.2c4,0,9.2,3.2,13.2,3.2c4,0,9.2-3.2,13.2-3.2c4,0,9.2,3.2,13.2,3.2
					c4,0,9.2-3.2,13.2-3.2c4,0,9.2,3.2,13.2,3.2c4,0,9.2-3.2,13.2-3.2c4,0,9.2,3.2,13.2,3.2c4,0,9.2-3.2,13.2-3.2
					c4,0,9.2,3.2,13.2,3.2c4,0,9.2-3.2,13.2-3.2c4,0,9.2,3.2,13.2,3.2c4,0,9.2-3.2,13.2-3.2c4,0,9.2,3.2,13.2,3.2s9.2-3.2,13.2-3.2"
					/>
			</g>
			<g>
				<path class="st21" d="M0,141.5c4,0,9.2,3.2,13.2,3.2c4,0,9.2-3.2,13.2-3.2c4,0,9.2,3.2,13.2,3.2c4,0,9.2-3.2,13.2-3.2
					c4,0,9.2,3.2,13.2,3.2c4,0,9.2-3.2,13.2-3.2c4,0,9.2,3.2,13.2,3.2c4,0,9.2-3.2,13.2-3.2c4,0,9.2,3.2,13.2,3.2
					c4,0,9.2-3.2,13.2-3.2c4,0,9.2,3.2,13.2,3.2c4,0,9.2-3.2,13.2-3.2c4,0,9.2,3.2,13.2,3.2c4,0,9.2-3.2,13.2-3.2
					c4,0,9.2,3.2,13.2,3.2c4,0,9.2-3.2,13.2-3.2c4,0,9.2,3.2,13.2,3.2c4,0,9.2-3.2,13.2-3.2c4,0,9.2,3.2,13.2,3.2s9.2-3.2,13.2-3.2"
					/>
			</g>
			<g>
				<path class="st21" d="M0,144.6c3.9,0,9.3,3.1,13.2,3.1c3.9,0,9.3-3.1,13.2-3.1c3.9,0,9.3,3.1,13.2,3.1c3.9,0,9.3-3.1,13.2-3.1
					c3.9,0,9.3,3.1,13.2,3.1c3.9,0,9.3-3.1,13.2-3.1c3.9,0,9.3,3.1,13.2,3.1c3.9,0,9.3-3.1,13.2-3.1c3.9,0,9.3,3.1,13.2,3.1
					c3.9,0,9.3-3.1,13.2-3.1c3.9,0,9.3,3.1,13.2,3.1c3.9,0,9.3-3.1,13.2-3.1c3.9,0,9.3,3.1,13.2,3.1c3.9,0,9.3-3.1,13.2-3.1
					c3.9,0,9.3,3.1,13.2,3.1c3.9,0,9.3-3.1,13.2-3.1c3.9,0,9.3,3.1,13.2,3.1c3.9,0,9.3-3.1,13.2-3.1c3.9,0,9.3,3.1,13.2,3.1
					s9.3-3.1,13.2-3.1"/>
			</g>
			<g>
				<path class="st21" d="M0,147.8c3.8,0,9.3,3.1,13.2,3.1c3.8,0,9.3-3.1,13.2-3.1c3.8,0,9.3,3.1,13.2,3.1c3.8,0,9.3-3.1,13.2-3.1
					c3.8,0,9.3,3.1,13.2,3.1c3.8,0,9.3-3.1,13.2-3.1c3.8,0,9.3,3.1,13.2,3.1c3.8,0,9.3-3.1,13.2-3.1c3.8,0,9.3,3.1,13.2,3.1
					c3.8,0,9.3-3.1,13.2-3.1c3.8,0,9.3,3.1,13.2,3.1c3.8,0,9.3-3.1,13.2-3.1c3.8,0,9.3,3.1,13.2,3.1c3.8,0,9.3-3.1,13.2-3.1
					c3.8,0,9.3,3.1,13.2,3.1c3.8,0,9.3-3.1,13.2-3.1c3.8,0,9.3,3.1,13.2,3.1c3.8,0,9.3-3.1,13.2-3.1c3.8,0,9.3,3.1,13.2,3.1
					s9.3-3.1,13.2-3.1"/>
			</g>
			<g>
				<path class="st21" d="M0,150.9c3.8,0,9.4,3.1,13.2,3.1c3.8,0,9.4-3.1,13.2-3.1c3.8,0,9.4,3.1,13.2,3.1c3.8,0,9.4-3.1,13.2-3.1
					c3.8,0,9.4,3.1,13.2,3.1c3.8,0,9.4-3.1,13.2-3.1c3.8,0,9.4,3.1,13.2,3.1c3.8,0,9.4-3.1,13.2-3.1c3.8,0,9.4,3.1,13.2,3.1
					c3.8,0,9.4-3.1,13.2-3.1c3.8,0,9.4,3.1,13.2,3.1c3.8,0,9.4-3.1,13.2-3.1c3.8,0,9.4,3.1,13.2,3.1c3.8,0,9.4-3.1,13.2-3.1
					c3.8,0,9.4,3.1,13.2,3.1c3.8,0,9.4-3.1,13.2-3.1c3.8,0,9.4,3.1,13.2,3.1c3.8,0,9.4-3.1,13.2-3.1c3.8,0,9.4,3.1,13.2,3.1
					s9.4-3.1,13.2-3.1"/>
			</g>
			<g>
				<path class="st21" d="M0,154c3.7,0,9.5,3.1,13.2,3.1c3.7,0,9.5-3.1,13.2-3.1c3.7,0,9.5,3.1,13.2,3.1c3.7,0,9.5-3.1,13.2-3.1
					c3.7,0,9.4,3.1,13.2,3.1c3.7,0,9.5-3.1,13.2-3.1c3.7,0,9.5,3.1,13.2,3.1c3.7,0,9.5-3.1,13.2-3.1c3.7,0,9.5,3.1,13.2,3.1
					c3.7,0,9.5-3.1,13.2-3.1c3.7,0,9.5,3.1,13.2,3.1c3.7,0,9.5-3.1,13.2-3.1c3.7,0,9.5,3.1,13.2,3.1c3.7,0,9.5-3.1,13.2-3.1
					c3.7,0,9.4,3.1,13.2,3.1c3.7,0,9.5-3.1,13.2-3.1c3.7,0,9.5,3.1,13.2,3.1c3.7,0,9.5-3.1,13.2-3.1c3.7,0,9.5,3.1,13.2,3.1
					s9.5-3.1,13.2-3.1"/>
			</g>
			<g>
				<path class="st21" d="M0,157.1c3.7,0,9.5,3,13.2,3c3.7,0,9.5-3,13.2-3c3.7,0,9.5,3,13.2,3c3.7,0,9.5-3,13.2-3
					c3.7,0,9.5,3,13.2,3c3.7,0,9.5-3,13.2-3c3.7,0,9.5,3,13.2,3c3.7,0,9.5-3,13.2-3c3.7,0,9.5,3,13.2,3c3.7,0,9.5-3,13.2-3
					c3.7,0,9.5,3,13.2,3c3.7,0,9.5-3,13.2-3c3.7,0,9.5,3,13.2,3c3.7,0,9.5-3,13.2-3c3.7,0,9.5,3,13.2,3c3.7,0,9.5-3,13.2-3
					c3.7,0,9.5,3,13.2,3c3.7,0,9.5-3,13.2-3c3.7,0,9.5,3,13.2,3s9.5-3,13.2-3"/>
			</g>
			<g>
				<path class="st21" d="M0,160.3c3.6,0,9.6,3,13.2,3c3.6,0,9.6-3,13.2-3c3.6,0,9.6,3,13.2,3c3.6,0,9.6-3,13.2-3
					c3.6,0,9.6,3,13.2,3c3.6,0,9.6-3,13.2-3c3.6,0,9.6,3,13.2,3c3.6,0,9.6-3,13.2-3c3.6,0,9.6,3,13.2,3c3.6,0,9.6-3,13.2-3
					c3.6,0,9.6,3,13.2,3c3.6,0,9.6-3,13.2-3c3.6,0,9.6,3,13.2,3c3.6,0,9.6-3,13.2-3c3.6,0,9.6,3,13.2,3c3.6,0,9.6-3,13.2-3
					c3.6,0,9.6,3,13.2,3c3.6,0,9.6-3,13.2-3c3.6,0,9.6,3,13.2,3s9.6-3,13.2-3"/>
			</g>
			<g>
				<path class="st21" d="M0,163.4c3.6,0,9.6,3,13.2,3c3.6,0,9.6-3,13.2-3c3.6,0,9.6,3,13.2,3c3.6,0,9.6-3,13.2-3
					c3.6,0,9.6,3,13.2,3c3.6,0,9.6-3,13.2-3c3.6,0,9.6,3,13.2,3c3.6,0,9.6-3,13.2-3c3.6,0,9.6,3,13.2,3c3.6,0,9.6-3,13.2-3
					c3.6,0,9.6,3,13.2,3c3.6,0,9.6-3,13.2-3c3.6,0,9.6,3,13.2,3c3.6,0,9.6-3,13.2-3c3.6,0,9.6,3,13.2,3c3.6,0,9.6-3,13.2-3
					c3.6,0,9.6,3,13.2,3c3.6,0,9.6-3,13.2-3c3.6,0,9.6,3,13.2,3c3.6,0,9.6-3,13.2-3"/>
			</g>
			<g>
				<path class="st21" d="M0,166.5c3.5,0,9.7,3,13.2,3c3.5,0,9.7-3,13.2-3c3.5,0,9.7,3,13.2,3c3.5,0,9.7-3,13.2-3
					c3.5,0,9.7,3,13.2,3c3.5,0,9.7-3,13.2-3c3.5,0,9.7,3,13.2,3c3.5,0,9.7-3,13.2-3c3.5,0,9.7,3,13.2,3c3.5,0,9.7-3,13.2-3
					c3.5,0,9.7,3,13.2,3c3.5,0,9.7-3,13.2-3c3.5,0,9.7,3,13.2,3c3.5,0,9.7-3,13.2-3c3.5,0,9.7,3,13.2,3c3.5,0,9.7-3,13.2-3
					c3.5,0,9.7,3,13.2,3c3.5,0,9.7-3,13.2-3c3.5,0,9.7,3,13.2,3c3.5,0,9.7-3,13.2-3"/>
			</g>
			<g>
				<path class="st21" d="M0,169.6c3.4,0,9.7,2.9,13.2,2.9c3.4,0,9.7-2.9,13.2-2.9c3.4,0,9.7,2.9,13.2,2.9c3.4,0,9.7-2.9,13.2-2.9
					c3.4,0,9.7,2.9,13.2,2.9c3.4,0,9.7-2.9,13.2-2.9c3.4,0,9.7,2.9,13.2,2.9c3.4,0,9.7-2.9,13.2-2.9c3.4,0,9.7,2.9,13.2,2.9
					c3.4,0,9.7-2.9,13.2-2.9c3.4,0,9.7,2.9,13.2,2.9c3.4,0,9.7-2.9,13.2-2.9c3.4,0,9.7,2.9,13.2,2.9c3.4,0,9.7-2.9,13.2-2.9
					c3.4,0,9.7,2.9,13.2,2.9c3.4,0,9.7-2.9,13.2-2.9c3.4,0,9.7,2.9,13.2,2.9c3.4,0,9.7-2.9,13.2-2.9c3.4,0,9.7,2.9,13.2,2.9
					c3.4,0,9.7-2.9,13.2-2.9"/>
			</g>
			<g>
				<path class="st21" d="M0,172.8c3.4,0,9.8,2.9,13.2,2.9c3.4,0,9.8-2.9,13.2-2.9c3.4,0,9.8,2.9,13.2,2.9c3.4,0,9.8-2.9,13.2-2.9
					c3.4,0,9.8,2.9,13.2,2.9c3.4,0,9.8-2.9,13.2-2.9c3.4,0,9.8,2.9,13.2,2.9c3.4,0,9.8-2.9,13.2-2.9c3.4,0,9.8,2.9,13.2,2.9
					c3.4,0,9.8-2.9,13.2-2.9c3.4,0,9.8,2.9,13.2,2.9c3.4,0,9.8-2.9,13.2-2.9c3.4,0,9.8,2.9,13.2,2.9c3.4,0,9.8-2.9,13.2-2.9
					c3.4,0,9.8,2.9,13.2,2.9c3.4,0,9.8-2.9,13.2-2.9c3.4,0,9.8,2.9,13.2,2.9c3.4,0,9.8-2.9,13.2-2.9c3.4,0,9.8,2.9,13.2,2.9
					c3.4,0,9.8-2.9,13.2-2.9"/>
			</g>
			<g>
				<path class="st21" d="M0,175.9c3.3,0,9.9,2.9,13.2,2.9c3.3,0,9.9-2.9,13.2-2.9c3.3,0,9.9,2.9,13.2,2.9c3.3,0,9.9-2.9,13.2-2.9
					c3.3,0,9.8,2.9,13.2,2.9c3.3,0,9.9-2.9,13.2-2.9c3.3,0,9.9,2.9,13.2,2.9c3.3,0,9.9-2.9,13.2-2.9c3.3,0,9.9,2.9,13.2,2.9
					c3.3,0,9.9-2.9,13.2-2.9c3.3,0,9.9,2.9,13.2,2.9c3.3,0,9.9-2.9,13.2-2.9c3.3,0,9.9,2.9,13.2,2.9c3.3,0,9.9-2.9,13.2-2.9
					c3.3,0,9.9,2.9,13.2,2.9c3.3,0,9.9-2.9,13.2-2.9c3.3,0,9.9,2.9,13.2,2.9c3.3,0,9.9-2.9,13.2-2.9c3.3,0,9.9,2.9,13.2,2.9
					c3.3,0,9.9-2.9,13.2-2.9"/>
			</g>
			<g>
				<path class="st21" d="M0,179c3.3,0,9.9,2.9,13.2,2.9c3.3,0,9.9-2.9,13.2-2.9c3.3,0,9.9,2.9,13.2,2.9c3.3,0,9.9-2.9,13.2-2.9
					c3.3,0,9.9,2.9,13.2,2.9c3.3,0,9.9-2.9,13.2-2.9c3.3,0,9.9,2.9,13.2,2.9c3.3,0,9.9-2.9,13.2-2.9c3.3,0,9.9,2.9,13.2,2.9
					c3.3,0,9.9-2.9,13.2-2.9c3.3,0,9.9,2.9,13.2,2.9c3.3,0,9.9-2.9,13.2-2.9c3.3,0,9.9,2.9,13.2,2.9c3.3,0,9.9-2.9,13.2-2.9
					c3.3,0,9.9,2.9,13.2,2.9c3.3,0,9.9-2.9,13.2-2.9c3.3,0,9.9,2.9,13.2,2.9c3.3,0,9.9-2.9,13.2-2.9c3.3,0,9.9,2.9,13.2,2.9
					c3.3,0,9.9-2.9,13.2-2.9"/>
			</g>
			<g>
				<path class="st21" d="M0,182.1c3.2,0,10,2.8,13.2,2.8c3.2,0,10-2.8,13.2-2.8c3.2,0,10,2.8,13.2,2.8c3.2,0,10-2.8,13.2-2.8
					c3.2,0,10,2.8,13.2,2.8c3.2,0,10-2.8,13.2-2.8c3.2,0,10,2.8,13.2,2.8c3.2,0,10-2.8,13.2-2.8c3.2,0,10,2.8,13.2,2.8
					c3.2,0,10-2.8,13.2-2.8c3.2,0,10,2.8,13.2,2.8c3.2,0,10-2.8,13.2-2.8c3.2,0,10,2.8,13.2,2.8c3.2,0,10-2.8,13.2-2.8
					c3.2,0,10,2.8,13.2,2.8c3.2,0,10-2.8,13.2-2.8c3.2,0,10,2.8,13.2,2.8c3.2,0,10-2.8,13.2-2.8c3.2,0,10,2.8,13.2,2.8
					s10-2.8,13.2-2.8"/>
			</g>
			<g>
				<path class="st21" d="M0,185.2c3.2,0,10,2.8,13.2,2.8c3.2,0,10-2.8,13.2-2.8c3.2,0,10,2.8,13.2,2.8c3.2,0,10-2.8,13.2-2.8
					c3.1,0,10,2.8,13.2,2.8c3.2,0,10-2.8,13.2-2.8c3.2,0,10,2.8,13.2,2.8c3.2,0,10-2.8,13.2-2.8c3.2,0,10,2.8,13.2,2.8
					c3.2,0,10-2.8,13.2-2.8c3.2,0,10,2.8,13.2,2.8c3.2,0,10-2.8,13.2-2.8c3.2,0,10,2.8,13.2,2.8c3.2,0,10-2.8,13.2-2.8
					c3.1,0,10,2.8,13.2,2.8c3.2,0,10-2.8,13.2-2.8c3.2,0,10,2.8,13.2,2.8c3.2,0,10-2.8,13.2-2.8c3.2,0,10,2.8,13.2,2.8
					s10-2.8,13.2-2.8"/>
			</g>
			<g>
				<path class="st21" d="M0,188.4c3.1,0,10.1,2.8,13.2,2.8c3.1,0,10.1-2.8,13.2-2.8c3.1,0,10.1,2.8,13.2,2.8
					c3.1,0,10.1-2.8,13.2-2.8c3.1,0,10.1,2.8,13.2,2.8c3.1,0,10.1-2.8,13.2-2.8c3.1,0,10.1,2.8,13.2,2.8c3.1,0,10.1-2.8,13.2-2.8
					c3.1,0,10.1,2.8,13.2,2.8c3.1,0,10.1-2.8,13.2-2.8c3.1,0,10.1,2.8,13.2,2.8c3.1,0,10.1-2.8,13.2-2.8c3.1,0,10.1,2.8,13.2,2.8
					c3.1,0,10.1-2.8,13.2-2.8c3.1,0,10.1,2.8,13.2,2.8c3.1,0,10.1-2.8,13.2-2.8c3.1,0,10.1,2.8,13.2,2.8c3.1,0,10.1-2.8,13.2-2.8
					c3.1,0,10.1,2.8,13.2,2.8s10.1-2.8,13.2-2.8"/>
			</g>
			<g>
				<path class="st21" d="M0,191.5c3,0,10.1,2.8,13.2,2.8c3,0,10.1-2.8,13.2-2.8c3,0,10.1,2.8,13.2,2.8c3,0,10.1-2.8,13.2-2.8
					c3,0,10.1,2.8,13.2,2.8c3,0,10.1-2.8,13.2-2.8c3,0,10.1,2.8,13.2,2.8c3,0,10.1-2.8,13.2-2.8c3,0,10.1,2.8,13.2,2.8
					c3,0,10.1-2.8,13.2-2.8c3,0,10.1,2.8,13.2,2.8c3,0,10.1-2.8,13.2-2.8c3,0,10.1,2.8,13.2,2.8c3,0,10.1-2.8,13.2-2.8
					c3,0,10.1,2.8,13.2,2.8c3,0,10.1-2.8,13.2-2.8c3,0,10.1,2.8,13.2,2.8c3,0,10.1-2.8,13.2-2.8c3,0,10.1,2.8,13.2,2.8
					s10.1-2.8,13.2-2.8"/>
			</g>
			<g>
				<path class="st21" d="M0,194.6c3,0,10.2,2.7,13.2,2.7c3,0,10.2-2.7,13.2-2.7c3,0,10.2,2.7,13.2,2.7c3,0,10.2-2.7,13.2-2.7
					c3,0,10.2,2.7,13.2,2.7c3,0,10.2-2.7,13.2-2.7c3,0,10.2,2.7,13.2,2.7c3,0,10.2-2.7,13.2-2.7c3,0,10.2,2.7,13.2,2.7
					c3,0,10.2-2.7,13.2-2.7c3,0,10.2,2.7,13.2,2.7c3,0,10.2-2.7,13.2-2.7c3,0,10.2,2.7,13.2,2.7c3,0,10.2-2.7,13.2-2.7
					c3,0,10.2,2.7,13.2,2.7c3,0,10.2-2.7,13.2-2.7c3,0,10.2,2.7,13.2,2.7c3,0,10.2-2.7,13.2-2.7c3,0,10.2,2.7,13.2,2.7
					s10.2-2.7,13.2-2.7"/>
			</g>
			<g>
				<path class="st21" d="M0,197.7c2.9,0,10.3,2.7,13.2,2.7c2.9,0,10.3-2.7,13.2-2.7c2.9,0,10.3,2.7,13.2,2.7
					c2.9,0,10.3-2.7,13.2-2.7c2.9,0,10.2,2.7,13.2,2.7c2.9,0,10.3-2.7,13.2-2.7c2.9,0,10.3,2.7,13.2,2.7c2.9,0,10.3-2.7,13.2-2.7
					c2.9,0,10.3,2.7,13.2,2.7c2.9,0,10.3-2.7,13.2-2.7c2.9,0,10.3,2.7,13.2,2.7c2.9,0,10.3-2.7,13.2-2.7c2.9,0,10.3,2.7,13.2,2.7
					c2.9,0,10.3-2.7,13.2-2.7c2.9,0,10.3,2.7,13.2,2.7c2.9,0,10.3-2.7,13.2-2.7c2.9,0,10.3,2.7,13.2,2.7c2.9,0,10.3-2.7,13.2-2.7
					c2.9,0,10.3,2.7,13.2,2.7s10.3-2.7,13.2-2.7"/>
			</g>
			<g>
				<path class="st21" d="M0,200.9c2.9,0,10.3,2.7,13.2,2.7c2.9,0,10.3-2.7,13.2-2.7c2.9,0,10.3,2.7,13.2,2.7
					c2.9,0,10.3-2.7,13.2-2.7c2.9,0,10.3,2.7,13.2,2.7c2.9,0,10.3-2.7,13.2-2.7c2.9,0,10.3,2.7,13.2,2.7c2.9,0,10.3-2.7,13.2-2.7
					c2.9,0,10.3,2.7,13.2,2.7c2.9,0,10.3-2.7,13.2-2.7c2.9,0,10.3,2.7,13.2,2.7c2.9,0,10.3-2.7,13.2-2.7c2.9,0,10.3,2.7,13.2,2.7
					c2.9,0,10.3-2.7,13.2-2.7c2.9,0,10.3,2.7,13.2,2.7c2.9,0,10.3-2.7,13.2-2.7c2.9,0,10.3,2.7,13.2,2.7c2.9,0,10.3-2.7,13.2-2.7
					c2.9,0,10.3,2.7,13.2,2.7s10.3-2.7,13.2-2.7"/>
			</g>
			<g>
				<path class="st21" d="M0,204c2.8,0,10.4,2.7,13.2,2.7c2.8,0,10.4-2.7,13.2-2.7c2.8,0,10.4,2.7,13.2,2.7c2.8,0,10.4-2.7,13.2-2.7
					c2.8,0,10.4,2.7,13.2,2.7c2.8,0,10.4-2.7,13.2-2.7c2.8,0,10.4,2.7,13.2,2.7c2.8,0,10.4-2.7,13.2-2.7c2.8,0,10.4,2.7,13.2,2.7
					c2.8,0,10.4-2.7,13.2-2.7c2.8,0,10.4,2.7,13.2,2.7c2.8,0,10.4-2.7,13.2-2.7c2.8,0,10.4,2.7,13.2,2.7c2.8,0,10.4-2.7,13.2-2.7
					c2.8,0,10.4,2.7,13.2,2.7c2.8,0,10.4-2.7,13.2-2.7c2.8,0,10.4,2.7,13.2,2.7c2.8,0,10.4-2.7,13.2-2.7c2.8,0,10.4,2.7,13.2,2.7
					s10.4-2.7,13.2-2.7"/>
			</g>
			<g>
				<path class="st21" d="M0,207.1c2.7,0,10.4,2.6,13.2,2.6c2.7,0,10.4-2.6,13.2-2.6c2.7,0,10.4,2.6,13.2,2.6
					c2.7,0,10.4-2.6,13.2-2.6c2.7,0,10.4,2.6,13.2,2.6c2.7,0,10.4-2.6,13.2-2.6c2.7,0,10.4,2.6,13.2,2.6c2.7,0,10.4-2.6,13.2-2.6
					c2.7,0,10.4,2.6,13.2,2.6c2.7,0,10.4-2.6,13.2-2.6c2.8,0,10.4,2.6,13.2,2.6c2.7,0,10.4-2.6,13.2-2.6c2.7,0,10.4,2.6,13.2,2.6
					c2.7,0,10.4-2.6,13.2-2.6c2.7,0,10.4,2.6,13.2,2.6c2.7,0,10.4-2.6,13.2-2.6c2.8,0,10.4,2.6,13.2,2.6c2.7,0,10.4-2.6,13.2-2.6
					c2.8,0,10.4,2.6,13.2,2.6s10.4-2.6,13.2-2.6"/>
			</g>
			<g>
				<path class="st21" d="M0,210.2c2.7,0,10.5,2.6,13.2,2.6c2.7,0,10.5-2.6,13.2-2.6c2.7,0,10.5,2.6,13.2,2.6
					c2.7,0,10.5-2.6,13.2-2.6c2.7,0,10.5,2.6,13.2,2.6c2.7,0,10.5-2.6,13.2-2.6c2.7,0,10.5,2.6,13.2,2.6c2.7,0,10.5-2.6,13.2-2.6
					c2.7,0,10.5,2.6,13.2,2.6c2.7,0,10.5-2.6,13.2-2.6c2.7,0,10.5,2.6,13.2,2.6c2.7,0,10.5-2.6,13.2-2.6c2.7,0,10.5,2.6,13.2,2.6
					c2.7,0,10.5-2.6,13.2-2.6c2.7,0,10.5,2.6,13.2,2.6c2.7,0,10.5-2.6,13.2-2.6c2.7,0,10.5,2.6,13.2,2.6c2.7,0,10.5-2.6,13.2-2.6
					c2.7,0,10.5,2.6,13.2,2.6s10.5-2.6,13.2-2.6"/>
			</g>
			<g>
				<path class="st21" d="M0,213.4c2.6,0,10.5,2.6,13.2,2.6c2.6,0,10.5-2.6,13.2-2.6c2.6,0,10.5,2.6,13.2,2.6
					c2.6,0,10.5-2.6,13.2-2.6c2.6,0,10.5,2.6,13.2,2.6c2.6,0,10.5-2.6,13.2-2.6c2.6,0,10.5,2.6,13.2,2.6c2.6,0,10.5-2.6,13.2-2.6
					c2.6,0,10.5,2.6,13.2,2.6c2.6,0,10.5-2.6,13.2-2.6c2.6,0,10.5,2.6,13.2,2.6c2.6,0,10.5-2.6,13.2-2.6c2.6,0,10.5,2.6,13.2,2.6
					c2.6,0,10.5-2.6,13.2-2.6c2.6,0,10.5,2.6,13.2,2.6c2.6,0,10.5-2.6,13.2-2.6c2.6,0,10.5,2.6,13.2,2.6c2.6,0,10.5-2.6,13.2-2.6
					c2.6,0,10.5,2.6,13.2,2.6s10.5-2.6,13.2-2.6"/>
			</g>
			<g>
				<path class="st21" d="M0,216.5c2.6,0,10.6,2.6,13.2,2.6c2.6,0,10.6-2.6,13.2-2.6c2.6,0,10.6,2.6,13.2,2.6
					c2.6,0,10.6-2.6,13.2-2.6c2.6,0,10.6,2.6,13.2,2.6c2.6,0,10.6-2.6,13.2-2.6c2.6,0,10.6,2.6,13.2,2.6c2.6,0,10.6-2.6,13.2-2.6
					c2.6,0,10.6,2.6,13.2,2.6c2.6,0,10.6-2.6,13.2-2.6c2.6,0,10.6,2.6,13.2,2.6c2.6,0,10.6-2.6,13.2-2.6c2.6,0,10.6,2.6,13.2,2.6
					c2.6,0,10.6-2.6,13.2-2.6c2.6,0,10.6,2.6,13.2,2.6c2.6,0,10.6-2.6,13.2-2.6c2.6,0,10.6,2.6,13.2,2.6c2.6,0,10.6-2.6,13.2-2.6
					c2.6,0,10.6,2.6,13.2,2.6c2.6,0,10.6-2.6,13.2-2.6"/>
			</g>
			<g>
				<path class="st21" d="M0,219.6c2.5,0,10.7,2.5,13.2,2.5c2.5,0,10.7-2.5,13.2-2.5c2.5,0,10.7,2.5,13.2,2.5
					c2.5,0,10.7-2.5,13.2-2.5c2.5,0,10.7,2.5,13.2,2.5c2.5,0,10.7-2.5,13.2-2.5c2.5,0,10.7,2.5,13.2,2.5c2.5,0,10.7-2.5,13.2-2.5
					c2.5,0,10.7,2.5,13.2,2.5c2.5,0,10.7-2.5,13.2-2.5c2.5,0,10.7,2.5,13.2,2.5c2.5,0,10.7-2.5,13.2-2.5c2.5,0,10.7,2.5,13.2,2.5
					c2.5,0,10.7-2.5,13.2-2.5c2.5,0,10.7,2.5,13.2,2.5c2.5,0,10.7-2.5,13.2-2.5c2.5,0,10.7,2.5,13.2,2.5c2.5,0,10.7-2.5,13.2-2.5
					c2.5,0,10.7,2.5,13.2,2.5c2.5,0,10.7-2.5,13.2-2.5"/>
			</g>
			<g>
				<path class="st21" d="M0,222.7c2.5,0,10.7,2.5,13.2,2.5c2.5,0,10.7-2.5,13.2-2.5c2.5,0,10.7,2.5,13.2,2.5
					c2.5,0,10.7-2.5,13.2-2.5c2.5,0,10.7,2.5,13.2,2.5c2.5,0,10.7-2.5,13.2-2.5c2.5,0,10.7,2.5,13.2,2.5c2.5,0,10.7-2.5,13.2-2.5
					c2.5,0,10.7,2.5,13.2,2.5c2.5,0,10.7-2.5,13.2-2.5c2.5,0,10.7,2.5,13.2,2.5c2.5,0,10.7-2.5,13.2-2.5c2.5,0,10.7,2.5,13.2,2.5
					c2.5,0,10.7-2.5,13.2-2.5c2.5,0,10.7,2.5,13.2,2.5c2.5,0,10.7-2.5,13.2-2.5c2.5,0,10.7,2.5,13.2,2.5c2.5,0,10.7-2.5,13.2-2.5
					c2.5,0,10.7,2.5,13.2,2.5c2.5,0,10.7-2.5,13.2-2.5"/>
			</g>
			<g>
				<path class="st21" d="M0,225.9c2.4,0,10.8,2.5,13.2,2.5c2.4,0,10.8-2.5,13.2-2.5c2.4,0,10.8,2.5,13.2,2.5
					c2.4,0,10.8-2.5,13.2-2.5c2.4,0,10.8,2.5,13.2,2.5c2.4,0,10.8-2.5,13.2-2.5c2.4,0,10.8,2.5,13.2,2.5c2.4,0,10.8-2.5,13.2-2.5
					c2.4,0,10.8,2.5,13.2,2.5c2.4,0,10.8-2.5,13.2-2.5c2.4,0,10.8,2.5,13.2,2.5c2.4,0,10.8-2.5,13.2-2.5c2.4,0,10.8,2.5,13.2,2.5
					c2.4,0,10.8-2.5,13.2-2.5c2.4,0,10.8,2.5,13.2,2.5c2.4,0,10.8-2.5,13.2-2.5c2.4,0,10.8,2.5,13.2,2.5c2.4,0,10.8-2.5,13.2-2.5
					c2.4,0,10.8,2.5,13.2,2.5c2.4,0,10.8-2.5,13.2-2.5"/>
			</g>
			<g>
				<path class="st21" d="M0,229c2.3,0,10.8,2.5,13.2,2.5c2.3,0,10.8-2.5,13.2-2.5c2.3,0,10.8,2.5,13.2,2.5c2.3,0,10.8-2.5,13.2-2.5
					c2.3,0,10.8,2.5,13.2,2.5c2.3,0,10.8-2.5,13.2-2.5c2.3,0,10.8,2.5,13.2,2.5c2.3,0,10.8-2.5,13.2-2.5c2.3,0,10.8,2.5,13.2,2.5
					c2.3,0,10.8-2.5,13.2-2.5c2.3,0,10.8,2.5,13.2,2.5c2.3,0,10.8-2.5,13.2-2.5c2.3,0,10.8,2.5,13.2,2.5c2.3,0,10.8-2.5,13.2-2.5
					c2.3,0,10.8,2.5,13.2,2.5c2.3,0,10.8-2.5,13.2-2.5c2.3,0,10.8,2.5,13.2,2.5c2.3,0,10.8-2.5,13.2-2.5c2.4,0,10.8,2.5,13.2,2.5
					c2.4,0,10.8-2.5,13.2-2.5"/>
			</g>
			<g>
				<path class="st21" d="M0,232.1c2.3,0,10.9,2.4,13.2,2.4c2.3,0,10.9-2.4,13.2-2.4c2.3,0,10.9,2.4,13.2,2.4
					c2.3,0,10.9-2.4,13.2-2.4c2.3,0,10.9,2.4,13.2,2.4c2.3,0,10.9-2.4,13.2-2.4c2.3,0,10.9,2.4,13.2,2.4c2.3,0,10.9-2.4,13.2-2.4
					c2.3,0,10.9,2.4,13.2,2.4c2.3,0,10.9-2.4,13.2-2.4c2.3,0,10.9,2.4,13.2,2.4c2.3,0,10.9-2.4,13.2-2.4c2.3,0,10.9,2.4,13.2,2.4
					c2.3,0,10.9-2.4,13.2-2.4c2.3,0,10.9,2.4,13.2,2.4c2.3,0,10.9-2.4,13.2-2.4c2.3,0,10.9,2.4,13.2,2.4c2.3,0,10.9-2.4,13.2-2.4
					c2.3,0,10.9,2.4,13.2,2.4c2.3,0,10.9-2.4,13.2-2.4"/>
			</g>
			<g>
				<path class="st21" d="M0,235.2c2.2,0,10.9,2.4,13.2,2.4c2.2,0,10.9-2.4,13.2-2.4c2.2,0,10.9,2.4,13.2,2.4
					c2.2,0,10.9-2.4,13.2-2.4c2.2,0,10.9,2.4,13.2,2.4c2.2,0,10.9-2.4,13.2-2.4c2.2,0,10.9,2.4,13.2,2.4c2.2,0,10.9-2.4,13.2-2.4
					c2.2,0,10.9,2.4,13.2,2.4c2.2,0,10.9-2.4,13.2-2.4c2.2,0,10.9,2.4,13.2,2.4c2.2,0,10.9-2.4,13.2-2.4c2.2,0,10.9,2.4,13.2,2.4
					c2.2,0,10.9-2.4,13.2-2.4c2.2,0,10.9,2.4,13.2,2.4c2.2,0,10.9-2.4,13.2-2.4c2.2,0,10.9,2.4,13.2,2.4c2.2,0,10.9-2.4,13.2-2.4
					c2.2,0,10.9,2.4,13.2,2.4s10.9-2.4,13.2-2.4"/>
			</g>
			<g>
				<path class="st21" d="M0,238.3c2.2,0,11,2.4,13.2,2.4c2.2,0,11-2.4,13.2-2.4c2.2,0,11,2.4,13.2,2.4c2.2,0,11-2.4,13.2-2.4
					c2.2,0,11,2.4,13.2,2.4c2.2,0,11-2.4,13.2-2.4c2.2,0,11,2.4,13.2,2.4c2.2,0,11-2.4,13.2-2.4c2.2,0,11,2.4,13.2,2.4
					c2.2,0,11-2.4,13.2-2.4c2.2,0,11,2.4,13.2,2.4c2.2,0,11-2.4,13.2-2.4c2.2,0,11,2.4,13.2,2.4c2.2,0,11-2.4,13.2-2.4
					c2.2,0,11,2.4,13.2,2.4c2.2,0,11-2.4,13.2-2.4c2.2,0,11,2.4,13.2,2.4c2.2,0,11-2.4,13.2-2.4c2.2,0,11,2.4,13.2,2.4
					s11-2.4,13.2-2.4"/>
			</g>
			<g>
				<path class="st21" d="M0,241.5c2.1,0,11.1,2.4,13.2,2.4c2.1,0,11.1-2.4,13.2-2.4c2.1,0,11.1,2.4,13.2,2.4
					c2.1,0,11.1-2.4,13.2-2.4c2.1,0,11.1,2.4,13.2,2.4c2.1,0,11.1-2.4,13.2-2.4c2.1,0,11.1,2.4,13.2,2.4c2.1,0,11.1-2.4,13.2-2.4
					c2.1,0,11.1,2.4,13.2,2.4c2.1,0,11.1-2.4,13.2-2.4c2.1,0,11.1,2.4,13.2,2.4c2.1,0,11.1-2.4,13.2-2.4c2.1,0,11.1,2.4,13.2,2.4
					c2.1,0,11.1-2.4,13.2-2.4c2.1,0,11.1,2.4,13.2,2.4c2.1,0,11.1-2.4,13.2-2.4c2.1,0,11.1,2.4,13.2,2.4c2.1,0,11.1-2.4,13.2-2.4
					c2.1,0,11.1,2.4,13.2,2.4s11.1-2.4,13.2-2.4"/>
			</g>
			<g>
				<path class="st21" d="M0,244.6c2.1,0,11.1,2.3,13.2,2.3c2.1,0,11.1-2.3,13.2-2.3c2.1,0,11.1,2.3,13.2,2.3
					c2.1,0,11.1-2.3,13.2-2.3c2.1,0,11.1,2.3,13.2,2.3c2.1,0,11.1-2.3,13.2-2.3c2.1,0,11.1,2.3,13.2,2.3c2.1,0,11.1-2.3,13.2-2.3
					c2.1,0,11.1,2.3,13.2,2.3c2.1,0,11.1-2.3,13.2-2.3c2.1,0,11.1,2.3,13.2,2.3c2.1,0,11.1-2.3,13.2-2.3c2.1,0,11.1,2.3,13.2,2.3
					c2.1,0,11.1-2.3,13.2-2.3c2.1,0,11.1,2.3,13.2,2.3c2.1,0,11.1-2.3,13.2-2.3c2.1,0,11.1,2.3,13.2,2.3c2.1,0,11.1-2.3,13.2-2.3
					c2.1,0,11.1,2.3,13.2,2.3s11.1-2.3,13.2-2.3"/>
			</g>
			<g>
				<path class="st21" d="M0,247.7c2,0,11.2,2.3,13.2,2.3c2,0,11.2-2.3,13.2-2.3c2,0,11.2,2.3,13.2,2.3c2,0,11.2-2.3,13.2-2.3
					c2,0,11.2,2.3,13.2,2.3c2,0,11.2-2.3,13.2-2.3c2,0,11.2,2.3,13.2,2.3c2,0,11.2-2.3,13.2-2.3c2,0,11.2,2.3,13.2,2.3
					c2,0,11.2-2.3,13.2-2.3c2,0,11.2,2.3,13.2,2.3c2,0,11.2-2.3,13.2-2.3c2,0,11.2,2.3,13.2,2.3c2,0,11.2-2.3,13.2-2.3
					c2,0,11.2,2.3,13.2,2.3c2,0,11.2-2.3,13.2-2.3c2,0,11.2,2.3,13.2,2.3c2,0,11.2-2.3,13.2-2.3c2,0,11.2,2.3,13.2,2.3
					s11.2-2.3,13.2-2.3"/>
			</g>
			<g>
				<path class="st21" d="M0,250.8c1.9,0,11.2,2.3,13.2,2.3c1.9,0,11.2-2.3,13.2-2.3c1.9,0,11.2,2.3,13.2,2.3
					c1.9,0,11.2-2.3,13.2-2.3c1.9,0,11.2,2.3,13.2,2.3c1.9,0,11.2-2.3,13.2-2.3c1.9,0,11.2,2.3,13.2,2.3c1.9,0,11.2-2.3,13.2-2.3
					c1.9,0,11.2,2.3,13.2,2.3c1.9,0,11.2-2.3,13.2-2.3c1.9,0,11.2,2.3,13.2,2.3c1.9,0,11.2-2.3,13.2-2.3c1.9,0,11.2,2.3,13.2,2.3
					c1.9,0,11.2-2.3,13.2-2.3c1.9,0,11.2,2.3,13.2,2.3c1.9,0,11.2-2.3,13.2-2.3c1.9,0,11.2,2.3,13.2,2.3c1.9,0,11.2-2.3,13.2-2.3
					c1.9,0,11.2,2.3,13.2,2.3s11.2-2.3,13.2-2.3"/>
			</g>
			<g>
				<path class="st21" d="M0,254c1.9,0,11.3,2.3,13.2,2.3c1.9,0,11.3-2.3,13.2-2.3c1.9,0,11.3,2.3,13.2,2.3c1.9,0,11.3-2.3,13.2-2.3
					c1.9,0,11.3,2.3,13.2,2.3c1.9,0,11.3-2.3,13.2-2.3c1.9,0,11.3,2.3,13.2,2.3c1.9,0,11.3-2.3,13.2-2.3c1.9,0,11.3,2.3,13.2,2.3
					c1.9,0,11.3-2.3,13.2-2.3c1.9,0,11.3,2.3,13.2,2.3c1.9,0,11.3-2.3,13.2-2.3c1.9,0,11.3,2.3,13.2,2.3c1.9,0,11.3-2.3,13.2-2.3
					c1.9,0,11.3,2.3,13.2,2.3c1.9,0,11.3-2.3,13.2-2.3c1.9,0,11.3,2.3,13.2,2.3c1.9,0,11.3-2.3,13.2-2.3c1.9,0,11.3,2.3,13.2,2.3
					s11.3-2.3,13.2-2.3"/>
			</g>
			<g>
				<path class="st21" d="M0,257.1c1.8,0,11.3,2.2,13.2,2.2c1.8,0,11.3-2.2,13.2-2.2c1.8,0,11.3,2.2,13.2,2.2
					c1.8,0,11.3-2.2,13.2-2.2c1.8,0,11.3,2.2,13.2,2.2c1.8,0,11.3-2.2,13.2-2.2c1.8,0,11.3,2.2,13.2,2.2c1.8,0,11.3-2.2,13.2-2.2
					c1.8,0,11.3,2.2,13.2,2.2c1.8,0,11.3-2.2,13.2-2.2c1.8,0,11.3,2.2,13.2,2.2c1.8,0,11.3-2.2,13.2-2.2c1.8,0,11.3,2.2,13.2,2.2
					c1.8,0,11.3-2.2,13.2-2.2c1.8,0,11.3,2.2,13.2,2.2c1.8,0,11.3-2.2,13.2-2.2c1.8,0,11.3,2.2,13.2,2.2c1.8,0,11.3-2.2,13.2-2.2
					c1.8,0,11.4,2.2,13.2,2.2s11.4-2.2,13.2-2.2"/>
			</g>
			<g>
				<path class="st21" d="M0,260.2c1.8,0,11.4,2.2,13.2,2.2c1.8,0,11.4-2.2,13.2-2.2c1.8,0,11.4,2.2,13.2,2.2
					c1.8,0,11.4-2.2,13.2-2.2c1.8,0,11.4,2.2,13.2,2.2c1.8,0,11.4-2.2,13.2-2.2c1.8,0,11.4,2.2,13.2,2.2c1.8,0,11.4-2.2,13.2-2.2
					c1.8,0,11.4,2.2,13.2,2.2c1.8,0,11.4-2.2,13.2-2.2c1.8,0,11.4,2.2,13.2,2.2c1.8,0,11.4-2.2,13.2-2.2c1.8,0,11.4,2.2,13.2,2.2
					c1.8,0,11.4-2.2,13.2-2.2c1.8,0,11.4,2.2,13.2,2.2c1.8,0,11.4-2.2,13.2-2.2c1.8,0,11.4,2.2,13.2,2.2c1.8,0,11.4-2.2,13.2-2.2
					c1.8,0,11.4,2.2,13.2,2.2s11.4-2.2,13.2-2.2"/>
			</g>
			<g>
				<path class="st21" d="M0,263.3c1.7,0,11.5,2.2,13.2,2.2c1.7,0,11.5-2.2,13.2-2.2c1.7,0,11.5,2.2,13.2,2.2
					c1.7,0,11.5-2.2,13.2-2.2c1.7,0,11.5,2.2,13.2,2.2c1.7,0,11.5-2.2,13.2-2.2c1.7,0,11.5,2.2,13.2,2.2c1.7,0,11.5-2.2,13.2-2.2
					c1.7,0,11.5,2.2,13.2,2.2c1.7,0,11.5-2.2,13.2-2.2c1.7,0,11.5,2.2,13.2,2.2c1.7,0,11.5-2.2,13.2-2.2c1.7,0,11.5,2.2,13.2,2.2
					c1.7,0,11.5-2.2,13.2-2.2c1.7,0,11.5,2.2,13.2,2.2c1.7,0,11.5-2.2,13.2-2.2c1.7,0,11.5,2.2,13.2,2.2c1.7,0,11.5-2.2,13.2-2.2
					c1.7,0,11.5,2.2,13.2,2.2s11.5-2.2,13.2-2.2"/>
			</g>
			<g>
				<path class="st21" d="M0,266.5c1.7,0,11.5,2.2,13.2,2.2c1.7,0,11.5-2.2,13.2-2.2c1.7,0,11.5,2.2,13.2,2.2
					c1.7,0,11.5-2.2,13.2-2.2c1.7,0,11.5,2.2,13.2,2.2c1.7,0,11.5-2.2,13.2-2.2c1.7,0,11.5,2.2,13.2,2.2c1.7,0,11.5-2.2,13.2-2.2
					c1.7,0,11.5,2.2,13.2,2.2c1.7,0,11.5-2.2,13.2-2.2c1.7,0,11.5,2.2,13.2,2.2c1.7,0,11.5-2.2,13.2-2.2c1.7,0,11.5,2.2,13.2,2.2
					c1.7,0,11.5-2.2,13.2-2.2c1.7,0,11.5,2.2,13.2,2.2c1.7,0,11.5-2.2,13.2-2.2c1.7,0,11.5,2.2,13.2,2.2c1.7,0,11.5-2.2,13.2-2.2
					c1.7,0,11.5,2.2,13.2,2.2s11.5-2.2,13.2-2.2"/>
			</g>
			<g>
				<path class="st21" d="M0,269.6c1.6,0,11.6,2.1,13.2,2.1c1.6,0,11.6-2.1,13.2-2.1c1.6,0,11.6,2.1,13.2,2.1
					c1.6,0,11.6-2.1,13.2-2.1c1.6,0,11.6,2.1,13.2,2.1c1.6,0,11.6-2.1,13.2-2.1c1.6,0,11.6,2.1,13.2,2.1c1.6,0,11.6-2.1,13.2-2.1
					c1.6,0,11.6,2.1,13.2,2.1c1.6,0,11.6-2.1,13.2-2.1c1.6,0,11.6,2.1,13.2,2.1c1.6,0,11.6-2.1,13.2-2.1c1.6,0,11.6,2.1,13.2,2.1
					c1.6,0,11.6-2.1,13.2-2.1c1.6,0,11.6,2.1,13.2,2.1c1.6,0,11.6-2.1,13.2-2.1c1.6,0,11.6,2.1,13.2,2.1c1.6,0,11.6-2.1,13.2-2.1
					c1.6,0,11.6,2.1,13.2,2.1c1.6,0,11.6-2.1,13.2-2.1"/>
			</g>
			<g>
				<path class="st21" d="M0,272.7c1.5,0,11.6,2.1,13.2,2.1c1.5,0,11.6-2.1,13.2-2.1c1.5,0,11.6,2.1,13.2,2.1
					c1.5,0,11.6-2.1,13.2-2.1c1.5,0,11.6,2.1,13.2,2.1c1.5,0,11.6-2.1,13.2-2.1c1.5,0,11.6,2.1,13.2,2.1c1.5,0,11.6-2.1,13.2-2.1
					c1.5,0,11.6,2.1,13.2,2.1c1.5,0,11.6-2.1,13.2-2.1c1.5,0,11.6,2.1,13.2,2.1c1.5,0,11.6-2.1,13.2-2.1c1.5,0,11.6,2.1,13.2,2.1
					c1.5,0,11.6-2.1,13.2-2.1c1.5,0,11.6,2.1,13.2,2.1c1.5,0,11.6-2.1,13.2-2.1c1.5,0,11.6,2.1,13.2,2.1c1.5,0,11.6-2.1,13.2-2.1
					c1.5,0,11.6,2.1,13.2,2.1c1.5,0,11.6-2.1,13.2-2.1"/>
			</g>
			<g>
				<path class="st21" d="M0,275.8c1.5,0,11.7,2.1,13.2,2.1c1.5,0,11.7-2.1,13.2-2.1c1.5,0,11.7,2.1,13.2,2.1
					c1.5,0,11.7-2.1,13.2-2.1c1.5,0,11.7,2.1,13.2,2.1c1.5,0,11.7-2.1,13.2-2.1c1.5,0,11.7,2.1,13.2,2.1c1.5,0,11.7-2.1,13.2-2.1
					c1.5,0,11.7,2.1,13.2,2.1c1.5,0,11.7-2.1,13.2-2.1c1.5,0,11.7,2.1,13.2,2.1c1.5,0,11.7-2.1,13.2-2.1c1.5,0,11.7,2.1,13.2,2.1
					c1.5,0,11.7-2.1,13.2-2.1c1.5,0,11.7,2.1,13.2,2.1c1.5,0,11.7-2.1,13.2-2.1c1.5,0,11.7,2.1,13.2,2.1c1.5,0,11.7-2.1,13.2-2.1
					c1.5,0,11.7,2.1,13.2,2.1c1.5,0,11.7-2.1,13.2-2.1"/>
			</g>
			<g>
				<path class="st21" d="M0,279c1.4,0,11.7,2.1,13.2,2.1c1.4,0,11.7-2.1,13.2-2.1c1.4,0,11.7,2.1,13.2,2.1c1.4,0,11.7-2.1,13.2-2.1
					c1.4,0,11.7,2.1,13.2,2.1c1.4,0,11.7-2.1,13.2-2.1c1.4,0,11.7,2.1,13.2,2.1c1.4,0,11.7-2.1,13.2-2.1c1.4,0,11.7,2.1,13.2,2.1
					c1.4,0,11.7-2.1,13.2-2.1c1.4,0,11.7,2.1,13.2,2.1c1.4,0,11.7-2.1,13.2-2.1c1.4,0,11.7,2.1,13.2,2.1c1.4,0,11.7-2.1,13.2-2.1
					c1.4,0,11.7,2.1,13.2,2.1c1.4,0,11.7-2.1,13.2-2.1c1.4,0,11.7,2.1,13.2,2.1c1.4,0,11.7-2.1,13.2-2.1c1.4,0,11.8,2.1,13.2,2.1
					c1.4,0,11.8-2.1,13.2-2.1"/>
			</g>
			<g>
				<path class="st21" d="M0,282.1c1.4,0,11.8,2,13.2,2c1.4,0,11.8-2,13.2-2c1.4,0,11.8,2,13.2,2c1.4,0,11.8-2,13.2-2
					c1.4,0,11.8,2,13.2,2c1.4,0,11.8-2,13.2-2c1.4,0,11.8,2,13.2,2c1.4,0,11.8-2,13.2-2c1.4,0,11.8,2,13.2,2c1.4,0,11.8-2,13.2-2
					c1.4,0,11.8,2,13.2,2c1.4,0,11.8-2,13.2-2c1.4,0,11.8,2,13.2,2c1.4,0,11.8-2,13.2-2c1.4,0,11.8,2,13.2,2c1.4,0,11.8-2,13.2-2
					c1.4,0,11.8,2,13.2,2c1.4,0,11.8-2,13.2-2c1.4,0,11.8,2,13.2,2c1.4,0,11.8-2,13.2-2"/>
			</g>
			<g>
				<path class="st21" d="M0,285.2c1.3,0,11.9,2,13.2,2c1.3,0,11.9-2,13.2-2c1.3,0,11.9,2,13.2,2c1.3,0,11.9-2,13.2-2
					c1.3,0,11.9,2,13.2,2c1.3,0,11.9-2,13.2-2c1.3,0,11.9,2,13.2,2c1.3,0,11.9-2,13.2-2c1.3,0,11.9,2,13.2,2c1.3,0,11.9-2,13.2-2
					c1.3,0,11.9,2,13.2,2c1.3,0,11.9-2,13.2-2c1.3,0,11.9,2,13.2,2c1.3,0,11.9-2,13.2-2c1.3,0,11.9,2,13.2,2c1.3,0,11.9-2,13.2-2
					c1.3,0,11.9,2,13.2,2c1.3,0,11.9-2,13.2-2c1.3,0,11.9,2,13.2,2c1.3,0,11.9-2,13.2-2"/>
			</g>
			<g>
				<path class="st21" d="M0,288.3c1.3,0,11.9,2,13.2,2c1.3,0,11.9-2,13.2-2c1.3,0,11.9,2,13.2,2c1.3,0,11.9-2,13.2-2
					c1.3,0,11.9,2,13.2,2c1.3,0,11.9-2,13.2-2c1.3,0,11.9,2,13.2,2c1.3,0,11.9-2,13.2-2c1.3,0,11.9,2,13.2,2c1.3,0,11.9-2,13.2-2
					c1.3,0,11.9,2,13.2,2c1.3,0,11.9-2,13.2-2c1.3,0,11.9,2,13.2,2c1.3,0,11.9-2,13.2-2c1.3,0,11.9,2,13.2,2c1.3,0,11.9-2,13.2-2
					c1.3,0,11.9,2,13.2,2c1.3,0,11.9-2,13.2-2c1.3,0,11.9,2,13.2,2s11.9-2,13.2-2"/>
			</g>
			<g>
				<path class="st21" d="M0,291.4c1.2,0,12,2,13.2,2c1.2,0,12-2,13.2-2c1.2,0,12,2,13.2,2c1.2,0,12-2,13.2-2c1.2,0,12,2,13.2,2
					c1.2,0,12-2,13.2-2c1.2,0,12,2,13.2,2c1.2,0,12-2,13.2-2c1.2,0,12,2,13.2,2c1.2,0,12-2,13.2-2c1.2,0,12,2,13.2,2
					c1.2,0,12-2,13.2-2c1.2,0,12,2,13.2,2c1.2,0,12-2,13.2-2c1.2,0,12,2,13.2,2c1.2,0,12-2,13.2-2c1.2,0,12,2,13.2,2
					c1.2,0,12-2,13.2-2c1.2,0,12,2,13.2,2s12-2,13.2-2"/>
			</g>
			<g>
				<path class="st21" d="M0,294.6c1.1,0,12,1.9,13.2,1.9c1.1,0,12-1.9,13.2-1.9c1.1,0,12,1.9,13.2,1.9c1.1,0,12-1.9,13.2-1.9
					c1.1,0,12,1.9,13.2,1.9c1.1,0,12-1.9,13.2-1.9c1.1,0,12,1.9,13.2,1.9c1.1,0,12-1.9,13.2-1.9c1.1,0,12,1.9,13.2,1.9
					c1.1,0,12-1.9,13.2-1.9c1.1,0,12,1.9,13.2,1.9c1.1,0,12-1.9,13.2-1.9c1.1,0,12,1.9,13.2,1.9c1.1,0,12-1.9,13.2-1.9
					c1.1,0,12,1.9,13.2,1.9c1.1,0,12-1.9,13.2-1.9c1.1,0,12,1.9,13.2,1.9c1.1,0,12-1.9,13.2-1.9c1.1,0,12,1.9,13.2,1.9
					s12-1.9,13.2-1.9"/>
			</g>
			<g>
				<path class="st21" d="M0,297.7c1.1,0,12.1,1.9,13.2,1.9c1.1,0,12.1-1.9,13.2-1.9c1.1,0,12.1,1.9,13.2,1.9
					c1.1,0,12.1-1.9,13.2-1.9c1.1,0,12.1,1.9,13.2,1.9c1.1,0,12.1-1.9,13.2-1.9c1.1,0,12.1,1.9,13.2,1.9c1.1,0,12.1-1.9,13.2-1.9
					c1.1,0,12.1,1.9,13.2,1.9c1.1,0,12.1-1.9,13.2-1.9c1.1,0,12.1,1.9,13.2,1.9c1.1,0,12.1-1.9,13.2-1.9c1.1,0,12.1,1.9,13.2,1.9
					c1.1,0,12.1-1.9,13.2-1.9c1.1,0,12.1,1.9,13.2,1.9c1.1,0,12.1-1.9,13.2-1.9c1.1,0,12.1,1.9,13.2,1.9c1.1,0,12.1-1.9,13.2-1.9
					c1.1,0,12.1,1.9,13.2,1.9s12.1-1.9,13.2-1.9"/>
			</g>
			<g>
				<path class="st21" d="M0,300.8c1,0,12.1,1.9,13.2,1.9c1,0,12.1-1.9,13.2-1.9c1,0,12.1,1.9,13.2,1.9c1,0,12.1-1.9,13.2-1.9
					c1,0,12.1,1.9,13.2,1.9c1,0,12.1-1.9,13.2-1.9c1,0,12.1,1.9,13.2,1.9c1,0,12.1-1.9,13.2-1.9c1,0,12.1,1.9,13.2,1.9
					c1,0,12.1-1.9,13.2-1.9c1,0,12.1,1.9,13.2,1.9c1,0,12.1-1.9,13.2-1.9c1,0,12.1,1.9,13.2,1.9c1,0,12.1-1.9,13.2-1.9
					c1,0,12.1,1.9,13.2,1.9c1,0,12.1-1.9,13.2-1.9c1,0,12.1,1.9,13.2,1.9c1,0,12.1-1.9,13.2-1.9c1,0,12.2,1.9,13.2,1.9
					s12.2-1.9,13.2-1.9"/>
			</g>
			<g>
				<path class="st21" d="M0,303.9c1,0,12.2,1.9,13.2,1.9c1,0,12.2-1.9,13.2-1.9c1,0,12.2,1.9,13.2,1.9c1,0,12.2-1.9,13.2-1.9
					c1,0,12.2,1.9,13.2,1.9c1,0,12.2-1.9,13.2-1.9c1,0,12.2,1.9,13.2,1.9c1,0,12.2-1.9,13.2-1.9c1,0,12.2,1.9,13.2,1.9
					c1,0,12.2-1.9,13.2-1.9c1,0,12.2,1.9,13.2,1.9c1,0,12.2-1.9,13.2-1.9c1,0,12.2,1.9,13.2,1.9c1,0,12.2-1.9,13.2-1.9
					c1,0,12.2,1.9,13.2,1.9c1,0,12.2-1.9,13.2-1.9c1,0,12.2,1.9,13.2,1.9c1,0,12.2-1.9,13.2-1.9c1,0,12.2,1.9,13.2,1.9
					s12.2-1.9,13.2-1.9"/>
			</g>
			<g>
				<path class="st21" d="M0,307.1c0.9,0,12.3,1.8,13.2,1.8c0.9,0,12.3-1.8,13.2-1.8c0.9,0,12.3,1.8,13.2,1.8
					c0.9,0,12.3-1.8,13.2-1.8c0.9,0,12.3,1.8,13.2,1.8c0.9,0,12.3-1.8,13.2-1.8c0.9,0,12.3,1.8,13.2,1.8c0.9,0,12.3-1.8,13.2-1.8
					c0.9,0,12.3,1.8,13.2,1.8c0.9,0,12.3-1.8,13.2-1.8c0.9,0,12.3,1.8,13.2,1.8c0.9,0,12.3-1.8,13.2-1.8c0.9,0,12.3,1.8,13.2,1.8
					c0.9,0,12.3-1.8,13.2-1.8c0.9,0,12.3,1.8,13.2,1.8c0.9,0,12.3-1.8,13.2-1.8c0.9,0,12.3,1.8,13.2,1.8c0.9,0,12.3-1.8,13.2-1.8
					c0.9,0,12.3,1.8,13.2,1.8s12.3-1.8,13.2-1.8"/>
			</g>
			<g>
				<path class="st21" d="M0,310.2c0.9,0,12.3,1.8,13.2,1.8c0.9,0,12.3-1.8,13.2-1.8c0.9,0,12.3,1.8,13.2,1.8
					c0.9,0,12.3-1.8,13.2-1.8c0.9,0,12.3,1.8,13.2,1.8c0.9,0,12.3-1.8,13.2-1.8c0.9,0,12.3,1.8,13.2,1.8c0.9,0,12.3-1.8,13.2-1.8
					c0.9,0,12.3,1.8,13.2,1.8c0.9,0,12.3-1.8,13.2-1.8c0.9,0,12.3,1.8,13.2,1.8c0.9,0,12.3-1.8,13.2-1.8c0.9,0,12.3,1.8,13.2,1.8
					c0.9,0,12.3-1.8,13.2-1.8c0.9,0,12.3,1.8,13.2,1.8c0.9,0,12.3-1.8,13.2-1.8c0.9,0,12.3,1.8,13.2,1.8c0.9,0,12.3-1.8,13.2-1.8
					c0.9,0,12.3,1.8,13.2,1.8s12.3-1.8,13.2-1.8"/>
			</g>
			<g>
				<path class="st21" d="M0,313.3c0.8,0,12.4,1.8,13.2,1.8c0.8,0,12.4-1.8,13.2-1.8c0.8,0,12.4,1.8,13.2,1.8
					c0.8,0,12.4-1.8,13.2-1.8c0.8,0,12.4,1.8,13.2,1.8c0.8,0,12.4-1.8,13.2-1.8c0.8,0,12.4,1.8,13.2,1.8c0.8,0,12.4-1.8,13.2-1.8
					c0.8,0,12.4,1.8,13.2,1.8c0.8,0,12.4-1.8,13.2-1.8c0.8,0,12.4,1.8,13.2,1.8c0.8,0,12.4-1.8,13.2-1.8c0.8,0,12.4,1.8,13.2,1.8
					c0.8,0,12.4-1.8,13.2-1.8c0.8,0,12.4,1.8,13.2,1.8c0.8,0,12.4-1.8,13.2-1.8c0.8,0,12.4,1.8,13.2,1.8c0.8,0,12.4-1.8,13.2-1.8
					c0.8,0,12.4,1.8,13.2,1.8s12.4-1.8,13.2-1.8"/>
			</g>
			<g>
				<path class="st21" d="M0,316.4c0.7,0,12.4,1.8,13.2,1.8c0.7,0,12.4-1.8,13.2-1.8c0.7,0,12.4,1.8,13.2,1.8
					c0.7,0,12.4-1.8,13.2-1.8c0.7,0,12.4,1.8,13.2,1.8c0.7,0,12.4-1.8,13.2-1.8c0.7,0,12.4,1.8,13.2,1.8c0.7,0,12.4-1.8,13.2-1.8
					c0.7,0,12.4,1.8,13.2,1.8c0.7,0,12.4-1.8,13.2-1.8c0.7,0,12.4,1.8,13.2,1.8c0.7,0,12.4-1.8,13.2-1.8c0.7,0,12.4,1.8,13.2,1.8
					c0.7,0,12.4-1.8,13.2-1.8c0.7,0,12.4,1.8,13.2,1.8c0.7,0,12.4-1.8,13.2-1.8c0.7,0,12.4,1.8,13.2,1.8c0.7,0,12.4-1.8,13.2-1.8
					c0.7,0,12.4,1.8,13.2,1.8s12.4-1.8,13.2-1.8"/>
			</g>
			<g>
				<path class="st21" d="M0,319.6c0.7,0,12.5,1.7,13.2,1.7c0.7,0,12.5-1.7,13.2-1.7c0.7,0,12.5,1.7,13.2,1.7
					c0.7,0,12.5-1.7,13.2-1.7c0.7,0,12.5,1.7,13.2,1.7c0.7,0,12.5-1.7,13.2-1.7c0.7,0,12.5,1.7,13.2,1.7c0.7,0,12.5-1.7,13.2-1.7
					c0.7,0,12.5,1.7,13.2,1.7c0.7,0,12.5-1.7,13.2-1.7c0.7,0,12.5,1.7,13.2,1.7c0.7,0,12.5-1.7,13.2-1.7c0.7,0,12.5,1.7,13.2,1.7
					c0.7,0,12.5-1.7,13.2-1.7c0.7,0,12.5,1.7,13.2,1.7c0.7,0,12.5-1.7,13.2-1.7c0.7,0,12.5,1.7,13.2,1.7c0.7,0,12.5-1.7,13.2-1.7
					c0.7,0,12.5,1.7,13.2,1.7s12.5-1.7,13.2-1.7"/>
			</g>
			<g>
				<path class="st21" d="M0,322.7c0.6,0,12.5,1.7,13.2,1.7c0.6,0,12.5-1.7,13.2-1.7c0.6,0,12.5,1.7,13.2,1.7
					c0.6,0,12.5-1.7,13.2-1.7c0.6,0,12.5,1.7,13.2,1.7c0.6,0,12.5-1.7,13.2-1.7c0.6,0,12.5,1.7,13.2,1.7c0.6,0,12.5-1.7,13.2-1.7
					c0.6,0,12.5,1.7,13.2,1.7c0.6,0,12.5-1.7,13.2-1.7c0.6,0,12.5,1.7,13.2,1.7c0.6,0,12.5-1.7,13.2-1.7c0.6,0,12.5,1.7,13.2,1.7
					s12.5-1.7,13.2-1.7c0.6,0,12.5,1.7,13.2,1.7c0.6,0,12.5-1.7,13.2-1.7c0.6,0,12.6,1.7,13.2,1.7c0.6,0,12.5-1.7,13.2-1.7
					c0.6,0,12.6,1.7,13.2,1.7c0.6,0,12.6-1.7,13.2-1.7"/>
			</g>
			<g>
				<path class="st21" d="M0,325.8c0.6,0,12.6,1.7,13.2,1.7c0.6,0,12.6-1.7,13.2-1.7c0.6,0,12.6,1.7,13.2,1.7
					c0.6,0,12.6-1.7,13.2-1.7c0.6,0,12.6,1.7,13.2,1.7c0.6,0,12.6-1.7,13.2-1.7c0.6,0,12.6,1.7,13.2,1.7c0.6,0,12.6-1.7,13.2-1.7
					c0.6,0,12.6,1.7,13.2,1.7c0.6,0,12.6-1.7,13.2-1.7c0.6,0,12.6,1.7,13.2,1.7c0.6,0,12.6-1.7,13.2-1.7c0.6,0,12.6,1.7,13.2,1.7
					c0.6,0,12.6-1.7,13.2-1.7c0.6,0,12.6,1.7,13.2,1.7c0.6,0,12.6-1.7,13.2-1.7c0.6,0,12.6,1.7,13.2,1.7c0.6,0,12.6-1.7,13.2-1.7
					c0.6,0,12.6,1.7,13.2,1.7c0.6,0,12.6-1.7,13.2-1.7"/>
			</g>
			<g>
				<path class="st21" d="M0,328.9c0.5,0,12.7,1.7,13.2,1.7c0.5,0,12.7-1.7,13.2-1.7c0.5,0,12.7,1.7,13.2,1.7
					c0.5,0,12.7-1.7,13.2-1.7c0.5,0,12.7,1.7,13.2,1.7c0.5,0,12.7-1.7,13.2-1.7c0.5,0,12.7,1.7,13.2,1.7c0.5,0,12.7-1.7,13.2-1.7
					c0.5,0,12.7,1.7,13.2,1.7c0.5,0,12.7-1.7,13.2-1.7c0.5,0,12.7,1.7,13.2,1.7c0.5,0,12.7-1.7,13.2-1.7c0.5,0,12.7,1.7,13.2,1.7
					s12.7-1.7,13.2-1.7c0.5,0,12.7,1.7,13.2,1.7c0.5,0,12.7-1.7,13.2-1.7c0.5,0,12.7,1.7,13.2,1.7c0.5,0,12.7-1.7,13.2-1.7
					c0.5,0,12.7,1.7,13.2,1.7c0.5,0,12.7-1.7,13.2-1.7"/>
			</g>
			<g>
				<path class="st21" d="M0,332.1c0.5,0,12.7,1.6,13.2,1.6c0.5,0,12.7-1.6,13.2-1.6c0.5,0,12.7,1.6,13.2,1.6
					c0.5,0,12.7-1.6,13.2-1.6c0.5,0,12.7,1.6,13.2,1.6c0.5,0,12.7-1.6,13.2-1.6c0.5,0,12.7,1.6,13.2,1.6c0.5,0,12.7-1.6,13.2-1.6
					c0.5,0,12.7,1.6,13.2,1.6c0.5,0,12.7-1.6,13.2-1.6c0.5,0,12.7,1.6,13.2,1.6c0.5,0,12.7-1.6,13.2-1.6c0.5,0,12.7,1.6,13.2,1.6
					c0.5,0,12.7-1.6,13.2-1.6c0.5,0,12.7,1.6,13.2,1.6c0.5,0,12.7-1.6,13.2-1.6c0.5,0,12.7,1.6,13.2,1.6c0.5,0,12.7-1.6,13.2-1.6
					c0.5,0,12.7,1.6,13.2,1.6c0.5,0,12.7-1.6,13.2-1.6"/>
			</g>
			<g>
				<path class="st21" d="M0,335.2c0.4,0,12.8,1.6,13.2,1.6c0.4,0,12.8-1.6,13.2-1.6c0.4,0,12.8,1.6,13.2,1.6
					c0.4,0,12.8-1.6,13.2-1.6c0.4,0,12.8,1.6,13.2,1.6c0.4,0,12.8-1.6,13.2-1.6c0.4,0,12.8,1.6,13.2,1.6c0.4,0,12.8-1.6,13.2-1.6
					c0.4,0,12.8,1.6,13.2,1.6c0.4,0,12.8-1.6,13.2-1.6c0.4,0,12.8,1.6,13.2,1.6c0.4,0,12.8-1.6,13.2-1.6c0.4,0,12.8,1.6,13.2,1.6
					s12.8-1.6,13.2-1.6c0.4,0,12.8,1.6,13.2,1.6c0.4,0,12.8-1.6,13.2-1.6c0.4,0,12.8,1.6,13.2,1.6c0.4,0,12.8-1.6,13.2-1.6
					c0.4,0,12.8,1.6,13.2,1.6c0.4,0,12.8-1.6,13.2-1.6"/>
			</g>
			<g>
				<path class="st21" d="M0,338.3c0.3,0,12.8,1.6,13.2,1.6c0.3,0,12.8-1.6,13.2-1.6c0.3,0,12.8,1.6,13.2,1.6
					c0.3,0,12.8-1.6,13.2-1.6c0.3,0,12.8,1.6,13.2,1.6c0.3,0,12.8-1.6,13.2-1.6c0.3,0,12.8,1.6,13.2,1.6c0.3,0,12.8-1.6,13.2-1.6
					c0.3,0,12.8,1.6,13.2,1.6c0.3,0,12.8-1.6,13.2-1.6c0.3,0,12.8,1.6,13.2,1.6c0.3,0,12.8-1.6,13.2-1.6c0.3,0,12.8,1.6,13.2,1.6
					s12.8-1.6,13.2-1.6c0.3,0,12.8,1.6,13.2,1.6c0.3,0,12.8-1.6,13.2-1.6c0.3,0,12.8,1.6,13.2,1.6c0.3,0,12.8-1.6,13.2-1.6
					c0.3,0,12.8,1.6,13.2,1.6c0.3,0,12.8-1.6,13.2-1.6"/>
			</g>
			<g>
				<path class="st21" d="M0,341.4c0.3,0,12.9,1.6,13.2,1.6c0.3,0,12.9-1.6,13.2-1.6c0.3,0,12.9,1.6,13.2,1.6
					c0.3,0,12.9-1.6,13.2-1.6c0.3,0,12.9,1.6,13.2,1.6c0.3,0,12.9-1.6,13.2-1.6c0.3,0,12.9,1.6,13.2,1.6c0.3,0,12.9-1.6,13.2-1.6
					c0.3,0,12.9,1.6,13.2,1.6c0.3,0,12.9-1.6,13.2-1.6c0.3,0,12.9,1.6,13.2,1.6c0.3,0,12.9-1.6,13.2-1.6c0.3,0,12.9,1.6,13.2,1.6
					s12.9-1.6,13.2-1.6c0.3,0,12.9,1.6,13.2,1.6c0.3,0,12.9-1.6,13.2-1.6c0.3,0,12.9,1.6,13.2,1.6c0.3,0,12.9-1.6,13.2-1.6
					c0.3,0,12.9,1.6,13.2,1.6s12.9-1.6,13.2-1.6"/>
			</g>
			<g>
				<path class="st21" d="M0,344.5c0.2,0,12.9,1.5,13.2,1.5c0.2,0,12.9-1.5,13.2-1.5c0.2,0,12.9,1.5,13.2,1.5
					c0.2,0,12.9-1.5,13.2-1.5c0.2,0,12.9,1.5,13.2,1.5c0.2,0,12.9-1.5,13.2-1.5c0.2,0,12.9,1.5,13.2,1.5c0.2,0,12.9-1.5,13.2-1.5
					c0.2,0,12.9,1.5,13.2,1.5c0.2,0,12.9-1.5,13.2-1.5c0.2,0,12.9,1.5,13.2,1.5c0.2,0,12.9-1.5,13.2-1.5c0.2,0,12.9,1.5,13.2,1.5
					s12.9-1.5,13.2-1.5c0.2,0,12.9,1.5,13.2,1.5c0.2,0,12.9-1.5,13.2-1.5c0.2,0,13,1.5,13.2,1.5c0.2,0,12.9-1.5,13.2-1.5
					c0.2,0,13,1.5,13.2,1.5s13-1.5,13.2-1.5"/>
			</g>
			<g>
				<path class="st21" d="M0,347.7c0.2,0,13,1.5,13.2,1.5c0.2,0,13-1.5,13.2-1.5c0.2,0,13,1.5,13.2,1.5c0.2,0,13-1.5,13.2-1.5
					c0.2,0,13,1.5,13.2,1.5c0.2,0,13-1.5,13.2-1.5c0.2,0,13,1.5,13.2,1.5c0.2,0,13-1.5,13.2-1.5c0.2,0,13,1.5,13.2,1.5
					c0.2,0,13-1.5,13.2-1.5c0.2,0,13,1.5,13.2,1.5c0.2,0,13-1.5,13.2-1.5s13,1.5,13.2,1.5s13-1.5,13.2-1.5c0.2,0,13,1.5,13.2,1.5
					c0.2,0,13-1.5,13.2-1.5c0.2,0,13,1.5,13.2,1.5c0.2,0,13-1.5,13.2-1.5c0.2,0,13,1.5,13.2,1.5s13-1.5,13.2-1.5"/>
			</g>
			<g>
				<path class="st21" d="M0,350.8c0.1,0,13.1,1.5,13.2,1.5c0.1,0,13.1-1.5,13.2-1.5s13.1,1.5,13.2,1.5c0.1,0,13.1-1.5,13.2-1.5
					c0.1,0,13.1,1.5,13.2,1.5c0.1,0,13.1-1.5,13.2-1.5c0.1,0,13.1,1.5,13.2,1.5c0.1,0,13.1-1.5,13.2-1.5c0.1,0,13.1,1.5,13.2,1.5
					c0.1,0,13.1-1.5,13.2-1.5s13.1,1.5,13.2,1.5c0.1,0,13.1-1.5,13.2-1.5s13.1,1.5,13.2,1.5s13.1-1.5,13.2-1.5
					c0.1,0,13.1,1.5,13.2,1.5c0.1,0,13.1-1.5,13.2-1.5c0.1,0,13.1,1.5,13.2,1.5c0.1,0,13.1-1.5,13.2-1.5c0.1,0,13.1,1.5,13.2,1.5
					s13.1-1.5,13.2-1.5"/>
			</g>
			<g>
				<path class="st21" d="M0,353.9c0.1,0,13.1,1.5,13.2,1.5s13.1-1.5,13.2-1.5s13.1,1.5,13.2,1.5c0.1,0,13.1-1.5,13.2-1.5
					c0.1,0,13.1,1.5,13.2,1.5c0.1,0,13.1-1.5,13.2-1.5c0.1,0,13.1,1.5,13.2,1.5c0.1,0,13.1-1.5,13.2-1.5c0.1,0,13.1,1.5,13.2,1.5
					s13.1-1.5,13.2-1.5c0.1,0,13.1,1.5,13.2,1.5c0.1,0,13.1-1.5,13.2-1.5c0.1,0,13.1,1.5,13.2,1.5c0.1,0,13.1-1.5,13.2-1.5
					c0.1,0,13.1,1.5,13.2,1.5s13.1-1.5,13.2-1.5s13.1,1.5,13.2,1.5c0.1,0,13.1-1.5,13.2-1.5c0.1,0,13.1,1.5,13.2,1.5
					s13.1-1.5,13.2-1.5"/>
			</g>
			<g>
				<polyline class="st21" points="0,357 13.2,358.5 26.3,357 39.5,358.5 52.7,357 65.9,358.5 79,357 92.2,358.5 105.4,357 
					118.6,358.5 131.7,357 144.9,358.5 158.1,357 171.3,358.5 184.4,357 197.6,358.5 210.8,357 224,358.5 237.1,357 250.3,358.5 
					263.5,357 				"/>
			</g>
		</g>
	</g>
</g>
</svg>
